<?xml version="1.0" standalone="no"?>
<!DOCTYPE svg PUBLIC "-//W3C//DTD SVG 20010904//EN"
 "http://www.w3.org/TR/2001/REC-SVG-20010904/DTD/svg10.dtd">
<svg version="1.0" xmlns="http://www.w3.org/2000/svg"
 width="40" height="40" viewBox="0 0 655.299419 506.230964"
 preserveAspectRatio="xMidYMid meet">
<metadata>Created by Svg.la</metadata>
<g transform="translate(-170.670500,831.953245) scale(0.100000,-0.100000)"
fill="#000000" stroke="none">
<path d="M7658 8308 c-11 -9 -19 -45 -27 -116 -17 -154 -15 -205 9 -235 45
-56 215 -88 284 -52 25 13 31 13 57 -2 16 -10 29 -21 29 -25 0 -18 -80 -19
-207 -3 -193 24 -283 56 -211 77 18 5 15 6 -14 7 -30 1 -38 -3 -38 -17 0 -27
45 -48 152 -71 114 -25 309 -31 333 -11 24 20 18 29 -30 50 -44 19 -44 19 -33
52 16 49 27 58 67 58 65 0 111 53 111 128 0 49 -26 75 -78 77 -26 0 -38 6 -40
18 -5 24 -51 46 -130 63 -84 17 -213 18 -234 2z m229 -23 c98 -23 103 -25 103
-42 0 -14 -13 -15 -92 -11 -91 6 -228 41 -228 59 0 15 144 10 217 -6z m-194
-30 c33 -21 158 -45 239 -45 68 0 70 -1 64 -22 -4 -13 -11 -45 -16 -73 -4 -27
-16 -78 -26 -113 -22 -79 -49 -97 -134 -89 -65 6 -157 42 -170 68 -6 10 -10
45 -10 78 0 61 19 211 27 211 2 0 14 -7 26 -15z m418 -76 c20 -20 20 -32 -2
-90 -12 -31 -47 -49 -92 -48 -31 1 -31 1 6 9 49 9 76 36 84 83 5 30 2 38 -13
43 -11 3 -28 9 -39 14 -18 8 -17 9 8 9 15 1 36 -8 48 -20z m-23 -35 c4 -31
-34 -74 -67 -74 -28 0 -28 1 -21 41 9 46 23 60 60 57 17 -2 26 -10 28 -24z"/>
<path d="M7941 8106 c-15 -61 -13 -90 3 -51 18 41 27 95 17 95 -5 0 -14 -20
-20 -44z"/>
<path d="M2681 7223 l-28 -28 -6 -230 c-9 -309 -9 -2161 1 -2503 l7 -274 31
-27 31 -28 404 -6 c222 -4 696 -10 1052 -14 356 -3 650 -9 652 -13 5 -9 -13
-496 -20 -525 -4 -19 -12 -20 -266 -20 l-263 0 -112 -95 -113 -95 -1 -54 0
-54 588 4 c323 2 783 3 1022 1 239 -2 456 -3 483 -3 l47 1 0 53 0 52 -113 97
-112 97 -262 1 c-244 0 -263 1 -263 18 0 9 -7 116 -15 237 -8 121 -15 238 -15
259 l0 39 134 -7 c74 -4 401 -2 728 3 326 6 735 13 909 15 335 5 375 10 398
54 15 29 26 965 24 2070 -1 858 -3 925 -19 950 -9 15 -24 31 -33 37 -10 5
-924 10 -2429 12 l-2413 3 -28 -27z m4876 -23 c10 -20 13 -323 13 -1397 l0
-1373 -144 0 c-80 0 -147 4 -150 8 -3 5 47 12 111 15 78 4 119 11 125 19 13
21 10 2128 -4 2415 -6 139 -15 258 -19 265 -12 20 -726 26 -2299 21 -745 -2
-1596 -4 -1890 -4 -321 1 -541 -3 -550 -9 -13 -8 -17 -73 -25 -417 -14 -564
-12 -2220 3 -2254 l11 -27 211 -7 c337 -12 347 -22 23 -24 l-293 -1 -1 313
c-4 856 4 2444 12 2459 12 23 7 23 2689 23 l2165 -1 12 -24z m-427 -49 l345
-6 10 -195 c9 -197 14 -2454 5 -2463 -3 -2 -210 -10 -460 -16 -823 -20 -4254
-10 -4278 13 -15 16 -20 1662 -6 2261 l9 400 395 5 c567 8 3571 8 3980 1z
m290 -2745 l145 -2 -3 -105 c-3 -92 -6 -106 -25 -122 -20 -18 -21 -18 -29 4
-7 19 -13 21 -56 16 -26 -4 -189 -9 -362 -12 -333 -6 -423 -11 -415 -25 3 -4
-5 -11 -18 -14 -40 -11 -2361 -15 -3157 -5 l-775 9 -22 26 c-21 23 -23 35 -23
129 l0 105 328 3 c327 3 4138 -3 4412 -7z m55 -246 c-45 -11 -125 -11 -125 0
0 6 32 10 78 9 56 -1 69 -3 47 -9z m-283 -7 c-73 -2 -190 -2 -260 0 -70 1 -10
3 133 3 143 0 200 -2 127 -3z m-414 -10 c-10 -2 -26 -2 -35 0 -10 3 -2 5 17 5
19 0 27 -2 18 -5z m-1803 -63 c3 -5 1 -10 -4 -10 -6 0 -11 5 -11 10 0 6 2 10
4 10 3 0 8 -4 11 -10z m115 0 c0 -5 -2 -10 -4 -10 -3 0 -8 5 -11 10 -3 6 -1
10 4 10 6 0 11 -4 11 -10z m80 6 c0 -3 -4 -8 -10 -11 -5 -3 -10 -1 -10 4 0 6
5 11 10 11 6 0 10 -2 10 -4z m110 -21 c-7 -9 -15 -13 -18 -10 -3 2 1 11 8 20
7 9 15 13 18 10 3 -2 -1 -11 -8 -20z m37 -17 c-3 -8 -6 -5 -6 6 -1 11 2 17 5
13 3 -3 4 -12 1 -19z m-29 -28 l62 -22 0 -74 c0 -41 4 -74 10 -74 5 0 7 26 3
66 -5 55 -4 66 8 62 11 -4 17 -45 25 -179 6 -96 15 -199 19 -231 7 -52 5 -57
-16 -71 -78 -51 -414 -57 -530 -10 l-41 16 6 61 c3 34 9 144 12 244 l7 184 46
20 c75 33 101 37 216 34 81 -3 127 -10 173 -26z m-486 -502 c11 -76 345 -114
543 -63 66 18 83 29 96 62 l8 22 258 -6 258 -6 83 -76 84 -76 -506 -3 c-278
-1 -733 -1 -1011 0 l-505 3 82 75 82 75 205 5 c114 3 232 7 263 8 52 2 57 0
60 -20z m1368 -191 l0 -24 -848 -7 c-466 -4 -937 -4 -1045 0 l-197 7 0 24 0
23 1045 0 1045 0 0 -23z"/>
<path d="M6280 7021 c0 -15 31 -135 39 -148 4 -9 28 8 70 51 l64 64 -44 12
c-24 6 -57 15 -73 20 -37 12 -56 13 -56 1z m85 -25 l59 -12 -46 -50 c-33 -34
-48 -45 -51 -34 -2 8 -11 36 -19 63 -9 26 -13 47 -9 46 3 0 33 -6 66 -13z"/>
<path d="M5432 6961 c-17 -10 -22 -91 -6 -91 7 0 10 8 7 20 -3 11 0 26 6 34 9
11 9 15 -1 19 -7 3 -3 6 10 6 13 1 20 5 17 11 -7 12 -16 12 -33 1z"/>
<path d="M3818 6915 c4 -42 6 -45 32 -45 20 0 31 6 35 20 7 22 -9 50 -28 50
-7 0 -7 -4 1 -12 19 -19 15 -50 -5 -46 -14 3 -17 12 -15 41 2 25 -1 37 -10 37
-9 0 -12 -13 -10 -45z"/>
<path d="M3915 6915 c0 -34 4 -45 16 -45 12 0 14 8 10 42 -8 57 -26 59 -26 3z"/>
<path d="M3994 6920 c0 -22 -3 -42 -9 -44 -5 -3 0 -5 13 -5 13 -1 21 3 17 9
-3 5 -6 25 -7 45 -1 19 -5 35 -9 35 -4 0 -6 -18 -5 -40z"/>
<path d="M4500 6945 c-1 -11 -1 -28 0 -39 1 -10 -4 -23 -12 -27 -9 -6 -4 -9
16 -9 22 0 26 3 18 13 -6 6 -12 28 -15 47 -2 19 -5 26 -7 15z"/>
<path d="M5260 6926 c5 -22 3 -39 -3 -45 -8 -8 -5 -11 12 -11 12 0 20 4 17 8
-3 5 -6 25 -8 45 -1 21 -7 37 -14 37 -8 0 -10 -10 -4 -34z"/>
<path d="M5337 6946 c-3 -8 -3 -24 0 -36 4 -13 0 -26 -8 -31 -10 -6 -5 -9 16
-9 20 0 26 3 17 9 -20 12 -11 65 13 73 17 5 16 6 -6 7 -15 1 -29 -5 -32 -13z"/>
<path d="M4304 6935 c-11 -26 5 -65 26 -65 10 0 21 4 24 9 4 5 -3 7 -14 4 -16
-4 -20 0 -20 20 0 14 5 27 12 29 7 3 5 7 -5 11 -11 4 -20 1 -23 -8z"/>
<path d="M4907 6944 c-2 -3 -1 -19 2 -37 5 -23 13 -33 29 -35 12 -2 22 1 22 7
0 6 -7 8 -17 4 -14 -5 -15 -1 -10 24 4 22 2 33 -7 36 -8 3 -16 4 -19 1z"/>
<path d="M3317 6896 c5 -37 2 -45 -13 -49 -16 -4 -16 -5 3 -6 26 -1 37 27 28
69 -10 46 -23 35 -18 -14z"/>
<path d="M3384 6929 c-4 -8 -3 -9 4 -5 7 4 18 4 24 0 9 -6 5 -10 -12 -14 -14
-3 -26 -14 -28 -23 -3 -14 4 -17 37 -17 l40 0 -14 33 c-14 34 -38 46 -51 26z
m31 -39 c-3 -5 -10 -10 -16 -10 -5 0 -9 5 -9 10 0 6 7 10 16 10 8 0 12 -4 9
-10z"/>
<path d="M3473 6905 c12 -40 30 -48 23 -10 -6 30 -14 45 -26 45 -4 0 -3 -16 3
-35z"/>
<path d="M3506 6931 c-6 -9 9 -61 17 -61 2 0 3 16 4 35 1 33 -9 46 -21 26z"/>
<path d="M3635 6888 c0 -30 4 -48 12 -48 8 0 10 14 8 40 -4 34 -1 40 15 40 26
0 33 -16 14 -34 -8 -9 -12 -16 -7 -16 15 0 33 23 33 41 0 12 -10 18 -38 20
l-37 4 0 -47z"/>
<path d="M3728 6905 c4 -32 7 -35 36 -35 31 0 32 1 28 35 -5 41 -18 47 -17 8
0 -37 -21 -40 -28 -3 -9 42 -24 38 -19 -5z"/>
<path d="M4062 6928 c-27 -27 1 -73 36 -61 21 8 13 21 -9 16 -17 -5 -20 -2
-17 18 2 19 8 23 27 21 15 -2 21 0 17 7 -9 15 -39 14 -54 -1z"/>
<path d="M4216 6924 c-4 -11 1 -18 14 -21 11 -3 20 -10 20 -15 0 -5 -9 -6 -20
-3 -11 4 -20 2 -20 -4 0 -6 14 -11 30 -11 35 0 43 29 10 37 -11 3 -20 10 -20
15 0 5 9 6 20 3 11 -4 20 -2 20 4 0 17 -47 13 -54 -5z"/>
<path d="M4390 6914 c-13 -33 -6 -43 30 -42 27 1 29 4 23 27 -8 36 -12 41 -29
41 -8 0 -19 -12 -24 -26z m30 -14 c0 -5 -7 -10 -16 -10 -8 0 -12 5 -9 10 3 6
10 10 16 10 5 0 9 -4 9 -10z"/>
<path d="M4570 6925 c-18 -21 -3 -55 25 -55 13 0 27 5 30 10 4 7 -2 9 -18 5
-29 -8 -44 9 -26 31 7 9 20 12 32 8 13 -4 17 -2 13 5 -10 16 -41 14 -56 -4z"/>
<path d="M4730 6925 c-18 -21 -3 -55 25 -55 13 0 27 5 30 10 4 7 -2 9 -19 4
-16 -4 -26 -2 -26 5 0 6 9 11 19 11 25 0 38 20 20 31 -20 13 -35 11 -49 -6z
m37 -11 c-3 -3 -12 -4 -19 -1 -8 3 -5 6 6 6 11 1 17 -2 13 -5z"/>
<path d="M4820 6925 c-19 -23 -8 -50 23 -53 15 -2 27 1 27 6 0 6 -9 8 -20 5
-16 -4 -20 0 -20 17 0 19 4 21 25 16 27 -7 35 8 9 18 -23 9 -30 8 -44 -9z"/>
<path d="M4995 6905 c0 -25 4 -35 15 -35 12 0 15 8 12 35 -2 19 -9 35 -16 35
-6 0 -11 -15 -11 -35z"/>
<path d="M5070 6925 c-26 -32 14 -75 44 -45 8 8 6 9 -8 4 -11 -4 -21 -2 -26 7
-12 19 7 38 32 31 14 -3 19 -1 14 6 -10 17 -41 15 -56 -3z"/>
<path d="M5150 6919 c-20 -36 21 -64 59 -40 12 8 13 14 3 35 -14 31 -47 34
-62 5z m47 -5 c8 -21 -13 -42 -28 -27 -13 13 -5 43 11 43 6 0 13 -7 17 -16z"/>
<path d="M4090 6700 c0 -5 5 -10 10 -10 6 0 10 5 10 10 0 6 -4 10 -10 10 -5 0
-10 -4 -10 -10z"/>
<path d="M4405 6659 c0 -46 2 -49 25 -48 14 0 19 3 13 6 -7 2 -13 22 -13 43 0
21 -6 40 -13 43 -9 3 -12 -9 -12 -44z"/>
<path d="M4480 6700 c0 -5 5 -10 10 -10 6 0 10 5 10 10 0 6 -4 10 -10 10 -5 0
-10 -4 -10 -10z"/>
<path d="M4680 6697 c0 -8 -9 -17 -20 -20 -11 -3 -20 -11 -20 -17 0 -10 3 -10
14 -1 17 15 31 -2 22 -26 -5 -13 -9 -13 -23 -2 -14 12 -16 12 -11 -1 2 -8 17
-16 31 -18 26 -3 27 -1 27 42 0 25 -4 48 -10 51 -5 3 -10 0 -10 -8z"/>
<path d="M5085 6700 c-3 -5 -1 -10 4 -10 6 0 11 5 11 10 0 6 -2 10 -4 10 -3 0
-8 -4 -11 -10z"/>
<path d="M5706 6695 c4 -10 0 -15 -14 -15 -11 0 -25 -6 -31 -14 -19 -23 3 -56
37 -56 26 0 27 1 24 50 -2 27 -8 50 -13 50 -4 0 -6 -7 -3 -15z m1 -41 c8 -20
-8 -36 -26 -25 -15 10 -8 41 9 41 6 0 13 -7 17 -16z"/>
<path d="M5601 6695 c-2 -5 -2 -23 -1 -39 1 -16 -4 -33 -12 -37 -9 -6 -4 -9
16 -9 22 0 26 3 18 13 -6 6 -12 28 -15 47 -2 19 -5 31 -6 25z"/>
<path d="M4910 6666 c0 -47 27 -75 45 -46 3 5 0 7 -8 4 -8 -3 -18 -1 -21 4
-10 16 4 42 23 43 12 0 12 2 -4 9 -31 13 -35 12 -35 -14z"/>
<path d="M4989 6685 c-3 -2 -3 -20 -1 -40 4 -29 8 -35 28 -35 13 0 24 4 24 9
0 5 -7 8 -16 7 -23 -2 -28 18 -10 37 14 13 14 16 0 21 -19 7 -19 7 -25 1z"/>
<path d="M3316 6655 c4 -15 2 -25 -5 -25 -6 0 -11 -4 -11 -10 0 -5 12 -10 27
-10 21 0 24 3 15 12 -7 7 -12 22 -12 35 0 13 -5 23 -10 23 -6 0 -8 -11 -4 -25z"/>
<path d="M3389 6673 c-1 -5 -1 -12 0 -17 1 -4 -3 -14 -9 -21 -14 -17 -2 -24
38 -23 29 1 31 3 25 27 -8 37 -12 41 -34 41 -10 0 -20 -3 -20 -7z m25 -44 c-3
-5 -10 -7 -15 -3 -5 3 -7 10 -3 15 3 5 10 7 15 3 5 -3 7 -10 3 -15z"/>
<path d="M3477 6650 c7 -31 23 -50 23 -28 0 8 7 21 15 28 23 19 18 31 -15 28
-26 -2 -29 -5 -23 -28z"/>
<path d="M3655 6658 c5 -19 2 -29 -12 -37 -16 -9 -15 -10 10 -11 25 0 27 3 21
28 -4 15 -11 32 -16 37 -6 6 -7 0 -3 -17z"/>
<path d="M3718 6645 c5 -41 19 -46 24 -8 4 39 28 42 28 3 0 -17 4 -29 9 -26 5
4 6 18 2 33 -6 21 -14 28 -37 30 -29 2 -30 1 -26 -32z"/>
<path d="M3814 6666 c-15 -39 23 -74 50 -45 8 9 7 11 -5 6 -9 -3 -22 -1 -30 4
-10 6 -6 9 14 9 22 0 28 4 25 18 -4 22 -46 29 -54 8z"/>
<path d="M3903 6668 c-18 -22 3 -60 29 -56 32 4 33 62 2 66 -11 2 -25 -3 -31
-10z m47 -8 c0 -5 -7 -7 -15 -4 -8 4 -15 8 -15 10 0 2 7 4 15 4 8 0 15 -4 15
-10z m0 -30 c0 -5 -6 -10 -14 -10 -8 0 -18 5 -21 10 -3 6 3 10 14 10 12 0 21
-4 21 -10z"/>
<path d="M4096 6656 c9 -36 -3 -66 -23 -59 -11 4 -14 2 -9 -5 10 -17 33 -15
40 4 10 25 7 84 -4 84 -6 0 -8 -10 -4 -24z"/>
<path d="M4150 6671 c0 -5 10 -7 23 -5 21 4 21 4 1 -5 -23 -10 -38 -37 -26
-45 5 -3 22 -4 40 -4 28 1 30 3 20 22 -6 12 -11 22 -10 24 8 12 -2 22 -23 22
-14 0 -25 -4 -25 -9z m35 -41 c-3 -5 -13 -10 -21 -10 -8 0 -12 5 -9 10 3 6 13
10 21 10 8 0 12 -4 9 -10z"/>
<path d="M4230 6668 c1 -36 12 -55 31 -51 14 4 19 14 19 37 0 25 -2 28 -11 16
-8 -11 -12 -12 -16 -2 -2 6 -9 12 -14 12 -5 0 -9 -6 -9 -12z"/>
<path d="M4291 6643 c0 -31 2 -34 9 -18 12 28 12 55 0 55 -5 0 -10 -17 -9 -37z"/>
<path d="M4483 6645 c-1 -25 3 -35 13 -35 11 0 14 9 12 32 -4 43 -23 46 -25 3z"/>
<path d="M4548 6645 c-2 -21 0 -35 7 -35 6 0 10 13 9 30 -1 20 3 30 12 30 9 0
14 -11 14 -30 0 -16 5 -30 10 -30 11 0 13 30 4 54 -3 9 -16 16 -29 16 -19 0
-24 -6 -27 -35z"/>
<path d="M4730 6665 c-26 -31 26 -74 54 -45 8 10 6 12 -11 7 -13 -3 -26 -1
-29 4 -3 5 7 9 21 9 20 0 26 4 23 18 -4 23 -41 27 -58 7z"/>
<path d="M4823 6669 c-16 -16 -3 -59 18 -59 28 0 35 28 13 46 -18 14 -18 15 5
8 16 -4 21 -3 17 5 -9 14 -39 14 -53 0z m37 -39 c0 -5 -7 -10 -15 -10 -8 0
-15 5 -15 10 0 6 7 10 15 10 8 0 15 -4 15 -10z"/>
<path d="M5084 6658 c1 -13 -2 -29 -7 -35 -7 -10 -2 -13 19 -13 22 0 25 3 16
12 -7 7 -12 22 -12 35 0 13 -4 23 -9 23 -4 0 -7 -10 -7 -22z"/>
<path d="M5150 6659 c-9 -15 -8 -24 1 -35 13 -16 45 -19 54 -4 4 6 -4 9 -17 7
-17 -1 -23 3 -23 18 0 15 6 19 23 18 12 -2 22 2 22 7 0 19 -49 10 -60 -11z"/>
<path d="M5247 6674 c-13 -13 -7 -55 8 -60 29 -11 44 3 36 33 -7 27 -30 41
-44 27z m33 -14 c0 -5 -4 -10 -9 -10 -6 0 -13 5 -16 10 -3 6 1 10 9 10 9 0 16
-4 16 -10z m0 -24 c0 -11 -19 -15 -25 -6 -3 5 1 10 9 10 9 0 16 -2 16 -4z"/>
<path d="M5390 6675 c0 -9 30 -65 35 -65 3 0 35 59 35 67 0 1 -4 3 -9 3 -5 0
-12 -12 -16 -27 l-8 -28 -10 28 c-9 23 -27 38 -27 22z"/>
<path d="M5489 6664 c-17 -21 0 -49 32 -49 18 0 25 6 27 24 6 38 -34 55 -59
25z m48 -10 c8 -21 -13 -42 -28 -27 -13 13 -5 43 11 43 6 0 13 -7 17 -16z"/>
<path d="M6628 6583 c-96 -155 -100 -164 -96 -169 3 -2 73 -3 156 -2 l151 3
-70 120 c-39 66 -75 124 -79 128 -4 5 -32 -31 -62 -80z m118 -45 c33 -57 61
-106 62 -110 2 -5 -53 -8 -122 -8 -69 0 -126 3 -126 7 0 14 117 213 125 213 2
0 29 -46 61 -102z"/>
<path d="M3560 6620 c0 -5 7 -10 15 -10 8 0 15 5 15 10 0 6 -7 10 -15 10 -8 0
-15 -4 -15 -10z"/>
<path d="M3555 6481 c0 -37 3 -48 15 -46 21 3 14 95 -8 95 -4 0 -7 -22 -7 -49z"/>
<path d="M4330 6520 c0 -5 5 -10 11 -10 5 0 7 5 4 10 -3 6 -8 10 -11 10 -2 0
-4 -4 -4 -10z"/>
<path d="M3915 6475 c0 -32 4 -45 13 -45 9 0 12 6 8 16 -3 9 -6 29 -6 45 0 16
-3 29 -7 29 -5 0 -8 -20 -8 -45z"/>
<path d="M4580 6481 c0 -41 23 -62 44 -41 7 7 5 10 -7 10 -18 0 -24 36 -7 42
6 2 1 9 -10 16 -19 11 -20 10 -20 -27z"/>
<path d="M3300 6490 c0 -5 8 -7 18 -4 9 2 7 -1 -6 -7 -33 -18 -24 -44 16 -46
26 -1 32 2 28 14 -3 8 -6 23 -6 34 0 14 -7 19 -25 19 -14 0 -25 -4 -25 -10z
m30 -40 c0 -5 -4 -10 -9 -10 -6 0 -13 5 -16 10 -3 6 1 10 9 10 9 0 16 -4 16
-10z"/>
<path d="M3390 6480 c0 -11 7 -20 15 -20 8 0 15 -5 15 -11 0 -6 -9 -8 -22 -4
-18 6 -20 4 -12 -5 16 -16 48 -9 52 12 2 11 -5 18 -20 21 l-23 4 23 2 c30 2
28 21 -3 21 -18 0 -25 -5 -25 -20z"/>
<path d="M3632 6491 c-25 -15 -10 -46 23 -48 29 -2 29 -2 5 7 -22 7 -23 8 -4
9 26 1 34 9 27 27 -6 16 -31 18 -51 5z"/>
<path d="M3713 6484 c-9 -24 11 -49 36 -47 25 3 26 -1 5 -21 -14 -15 -14 -16
3 -16 15 0 20 8 22 42 1 23 4 45 7 50 3 4 -11 8 -31 8 -24 0 -38 -5 -42 -16z
m47 -14 c0 -11 -7 -20 -15 -20 -8 0 -15 9 -15 20 0 11 7 20 15 20 8 0 15 -9
15 -20z"/>
<path d="M3813 6471 c1 -21 8 -36 17 -39 12 -4 13 -2 3 9 -6 8 -13 25 -16 39
-4 17 -5 15 -4 -9z"/>
<path d="M3850 6471 c0 -17 5 -33 10 -36 6 -4 10 8 10 29 0 20 -4 36 -10 36
-5 0 -10 -13 -10 -29z"/>
<path d="M3978 6464 c2 -19 8 -34 14 -34 5 0 7 8 3 19 -3 10 1 24 10 31 13 11
15 8 15 -19 0 -21 5 -31 15 -31 12 0 14 7 9 28 -9 38 -10 39 -42 40 -26 0 -28
-2 -24 -34z"/>
<path d="M4077 6493 c-24 -23 10 -71 40 -58 16 7 15 9 -7 14 l-25 7 28 8 c24
6 27 9 17 21 -13 16 -42 20 -53 8z"/>
<path d="M4160 6484 c0 -9 9 -18 20 -21 11 -3 20 -9 20 -14 0 -5 -12 -6 -26
-3 -19 5 -25 4 -20 -5 10 -16 53 -14 59 3 3 8 -4 22 -16 31 -16 11 -17 15 -5
11 10 -3 20 -1 23 4 4 6 -7 10 -24 10 -22 0 -31 -5 -31 -16z"/>
<path d="M4395 6470 c0 -16 3 -30 8 -30 4 0 7 11 7 25 0 16 6 25 15 25 9 0 15
-9 15 -25 0 -17 6 -25 17 -25 13 0 14 3 5 12 -7 7 -12 20 -12 30 0 13 -8 18
-27 18 -24 0 -28 -4 -28 -30z"/>
<path d="M4487 6493 c-8 -16 -1 -56 10 -60 7 -3 9 3 6 16 -4 15 -1 21 12 21
11 0 15 -5 12 -15 -4 -8 -2 -17 2 -20 9 -5 21 52 13 60 -8 8 -50 6 -55 -2z"/>
<path d="M4726 6475 c-9 -35 -1 -45 35 -42 25 2 29 6 25 22 -3 11 -6 26 -6 33
0 6 -11 12 -24 12 -17 0 -26 -7 -30 -25z m41 9 c-3 -3 -12 -4 -19 -1 -8 3 -5
6 6 6 11 1 17 -2 13 -5z m-2 -34 c-3 -5 -10 -10 -16 -10 -5 0 -9 5 -9 10 0 6
7 10 16 10 8 0 12 -4 9 -10z"/>
<path d="M4820 6480 c0 -15 7 -20 28 -20 21 0 24 -2 12 -10 -8 -5 -23 -7 -34
-4 -12 4 -16 2 -12 -5 10 -16 41 -14 56 4 14 17 15 16 -20 33 -23 12 -23 12
-2 8 12 -2 22 0 22 5 0 5 -11 9 -25 9 -18 0 -25 -5 -25 -20z"/>
<path d="M4328 6465 c-6 -29 -2 -35 26 -35 15 0 17 3 8 12 -7 7 -12 20 -12 30
0 27 -17 22 -22 -7z"/>
<path d="M4920 6440 c0 -5 5 -10 10 -10 6 0 10 5 10 10 0 6 -4 10 -10 10 -5 0
-10 -4 -10 -10z"/>
<path d="M3485 6325 c0 -34 4 -45 16 -45 12 0 14 8 10 42 -8 57 -26 59 -26 3z"/>
<path d="M3568 6334 c3 -24 0 -39 -9 -45 -10 -6 -5 -9 16 -9 20 0 26 3 17 9
-8 4 -13 17 -12 27 4 32 0 54 -8 54 -4 0 -6 -16 -4 -36z"/>
<path d="M3644 6326 c1 -39 4 -46 21 -45 11 0 14 3 8 6 -7 2 -13 17 -13 31 0
15 -4 33 -9 40 -5 8 -7 -5 -7 -32z"/>
<path d="M3800 6357 c0 -7 6 -19 12 -25 10 -10 10 -17 0 -32 -10 -17 -10 -20
6 -20 15 0 17 6 14 35 -3 21 -8 32 -15 28 -6 -4 -8 0 -4 10 3 10 2 17 -3 17
-6 0 -10 -6 -10 -13z"/>
<path d="M3888 6359 c15 -17 16 -51 0 -67 -9 -9 -5 -12 18 -12 16 0 24 4 17 8
-6 4 -13 23 -15 41 -2 20 -9 36 -18 39 -12 4 -13 2 -2 -9z"/>
<path d="M4305 6321 l0 -49 30 5 c28 6 44 19 45 35 0 14 -33 39 -46 34 -8 -3
-14 1 -14 9 0 8 -3 15 -7 15 -5 0 -8 -22 -8 -49z m55 -11 c0 -13 -7 -20 -20
-20 -13 0 -20 7 -20 20 0 13 7 20 20 20 13 0 20 -7 20 -20z"/>
<path d="M4415 6325 c0 -25 5 -45 10 -45 6 0 9 19 7 45 -2 25 -7 45 -11 45 -3
0 -6 -20 -6 -45z"/>
<path d="M5861 6319 c-18 -69 -8 -73 11 -4 8 30 12 55 9 55 -4 0 -13 -23 -20
-51z"/>
<path d="M4910 6336 c0 -39 11 -56 34 -55 16 1 17 2 4 6 -10 2 -18 13 -18 23
0 10 8 21 18 23 16 4 16 5 0 6 -10 0 -18 6 -18 11 0 6 -4 10 -10 10 -5 0 -10
-11 -10 -24z"/>
<path d="M5248 6348 c-10 -28 7 -63 32 -65 25 -3 25 -3 3 7 -27 11 -31 40 -5
41 13 0 14 2 2 6 -8 3 -18 10 -21 15 -3 5 -8 4 -11 -4z"/>
<path d="M5418 6349 c-2 -7 -2 -25 0 -41 3 -20 10 -28 24 -28 18 0 18 1 3 17
-16 16 -16 17 1 30 9 7 14 16 11 20 -4 3 -7 3 -7 -2 0 -4 -6 -2 -14 4 -11 9
-15 9 -18 0z"/>
<path d="M5770 6332 c0 -39 24 -71 41 -54 11 10 10 12 -4 12 -20 0 -24 36 -4
43 9 4 8 8 -3 16 -24 17 -30 13 -30 -17z"/>
<path d="M3716 6337 c-26 -19 -17 -51 17 -55 31 -4 47 20 30 46 -13 22 -26 24
-47 9z m38 -22 c3 -9 -1 -18 -10 -22 -19 -7 -39 11 -30 26 10 16 33 13 40 -4z"/>
<path d="M3972 6334 c-18 -12 -20 -19 -12 -35 10 -19 60 -28 60 -11 0 5 -10 8
-22 8 -27 -1 -32 27 -5 32 9 2 17 -2 17 -8 0 -6 5 -8 10 -5 8 5 7 11 -1 21
-15 18 -19 18 -47 -2z"/>
<path d="M4231 6341 c-11 -7 -7 -10 15 -14 l29 -4 -27 -2 c-21 -1 -28 -6 -28
-21 0 -11 2 -20 4 -20 2 0 13 -3 23 -6 16 -5 16 -4 -1 10 -20 16 -19 16 1 16
12 0 24 -6 26 -12 3 -7 6 1 6 18 1 20 -5 34 -15 38 -19 7 -16 8 -33 -3z"/>
<path d="M4493 6342 c-11 -7 -17 -26 -14 -48 1 -16 35 -24 52 -13 10 6 8 9 -8
9 -32 0 -29 18 4 22 26 3 26 4 9 21 -19 19 -25 20 -43 9z m34 -18 c-3 -3 -12
-4 -19 -1 -8 3 -5 6 6 6 11 1 17 -2 13 -5z"/>
<path d="M4825 6336 c-27 -20 -9 -50 31 -53 28 -2 28 -2 4 5 -14 5 -26 16 -28
26 -3 15 1 18 22 14 17 -4 25 -1 23 6 -6 17 -30 18 -52 2z"/>
<path d="M5080 6313 c0 -21 5 -33 14 -33 9 0 12 8 8 25 -4 21 0 25 19 25 30 0
16 13 -16 15 -22 1 -25 -4 -25 -32z"/>
<path d="M5174 6342 c-7 -4 -14 -18 -15 -32 -3 -20 1 -26 20 -28 33 -5 51 15
29 32 -23 17 -23 27 -1 19 11 -4 14 -3 9 5 -8 14 -26 15 -42 4z m26 -42 c0 -5
-7 -10 -15 -10 -8 0 -15 5 -15 10 0 6 7 10 15 10 8 0 15 -4 15 -10z"/>
<path d="M5334 6339 c-3 -5 5 -9 18 -10 23 -1 23 -1 -2 -8 -14 -4 -26 -15 -28
-24 -3 -14 4 -17 33 -17 30 0 36 3 31 16 -3 9 -6 21 -6 29 0 15 -38 27 -46 14z
m36 -45 c0 -2 -9 -4 -21 -4 -11 0 -18 4 -14 10 5 8 35 3 35 -6z"/>
<path d="M5580 6335 c-20 -25 -8 -50 25 -50 24 0 31 5 33 24 6 37 -34 55 -58
26z m37 -6 c14 -14 6 -39 -12 -39 -15 0 -24 19 -17 38 5 15 15 15 29 1z"/>
<path d="M5668 6314 c5 -39 22 -46 22 -10 0 14 4 27 9 31 12 7 25 -31 16 -45
-3 -5 -1 -10 4 -10 12 0 15 40 3 55 -4 6 -18 11 -32 11 -23 2 -25 -1 -22 -32z"/>
<path d="M3295 6290 c0 -28 3 -50 7 -50 5 0 8 9 8 21 0 11 4 17 10 14 16 -10
40 15 40 41 0 20 -5 24 -32 24 -33 0 -33 0 -33 -50z m50 15 c0 -28 -29 -25
-33 3 -3 19 0 23 15 20 10 -2 18 -12 18 -23z"/>
<path d="M3385 6320 c-9 -28 2 -40 36 -40 26 0 29 3 29 30 0 27 -3 30 -29 30
-21 0 -32 -6 -36 -20z m42 4 c-3 -3 -12 -4 -19 -1 -8 3 -5 6 6 6 11 1 17 -2
13 -5z m3 -24 c0 -5 -7 -10 -15 -10 -8 0 -15 5 -15 10 0 6 7 10 15 10 8 0 15
-4 15 -10z"/>
<path d="M4126 6310 c9 -16 19 -30 24 -30 4 0 3 14 -3 30 -6 17 -17 30 -23 30
-9 0 -8 -8 2 -30z"/>
<path d="M4170 6309 c0 -17 4 -28 10 -24 6 3 10 17 10 31 0 13 -4 24 -10 24
-5 0 -10 -14 -10 -31z"/>
<path d="M4653 6309 c-1 -19 3 -29 11 -29 9 0 12 7 9 20 -4 14 1 22 18 29 23
9 23 9 -6 9 -26 -1 -30 -5 -32 -29z"/>
<path d="M4734 6325 c-10 -26 4 -45 33 -44 l28 1 -30 8 c-29 7 -29 8 -4 9 31
1 39 8 32 27 -7 19 -52 18 -59 -1z m43 -1 c-3 -3 -12 -4 -19 -1 -8 3 -5 6 6 6
11 1 17 -2 13 -5z"/>
<path d="M5005 6310 c0 -23 5 -30 20 -30 15 0 16 3 7 12 -7 7 -12 20 -12 30 0
10 -3 18 -7 18 -5 0 -8 -13 -8 -30z"/>
<path d="M5508 6310 c-4 -23 -1 -30 12 -30 13 0 16 6 12 25 -7 37 -19 39 -24
5z"/>
<path d="M3315 6214 c-10 -10 -13 -24 -9 -41 4 -16 2 -28 -7 -34 -11 -7 -9 -9
6 -9 17 0 20 6 19 37 -1 31 3 39 20 43 18 5 19 7 4 13 -10 3 -24 0 -33 -9z"/>
<path d="M4276 6205 c4 -10 2 -13 -8 -10 -20 8 -41 -20 -33 -45 4 -14 15 -20
35 -20 29 0 30 2 28 45 -2 28 -7 45 -15 45 -7 0 -10 -7 -7 -15z m4 -45 c0 -23
-25 -27 -33 -6 -7 16 1 26 20 26 7 0 13 -9 13 -20z"/>
<path d="M4408 6213 c7 -3 16 -2 19 1 4 3 -2 6 -13 5 -11 0 -14 -3 -6 -6z"/>
<path d="M4483 6186 c3 -19 0 -39 -6 -45 -8 -8 -6 -11 9 -11 17 0 19 6 16 45
-2 25 -9 45 -14 45 -6 0 -8 -14 -5 -34z"/>
<path d="M5030 6180 c0 -30 -4 -40 -16 -40 -13 0 -15 7 -11 30 5 23 3 28 -8
23 -17 -6 -20 -44 -4 -60 5 -5 20 -8 32 -6 19 4 22 11 22 49 0 24 -3 44 -7 44
-5 0 -8 -18 -8 -40z"/>
<path d="M5085 6175 c0 -35 4 -45 16 -45 14 0 16 6 10 33 -4 17 -8 36 -9 42 0
5 -4 11 -9 12 -4 2 -8 -17 -8 -42z"/>
<path d="M5334 6181 c4 -27 2 -41 -7 -44 -6 -3 4 -5 23 -5 19 0 27 2 18 5 -16
4 -25 40 -19 76 0 4 -4 7 -10 7 -8 0 -9 -13 -5 -39z"/>
<path d="M4164 6200 c-14 -14 -5 -70 11 -70 8 0 11 8 8 20 -4 13 1 27 13 36
16 13 16 15 2 10 -9 -3 -18 0 -20 5 -2 6 -7 6 -14 -1z"/>
<path d="M3380 6181 c-15 -29 -2 -51 31 -51 34 0 45 19 29 49 -14 26 -46 27
-60 2z m48 -19 c3 -17 -2 -22 -17 -22 -14 0 -21 6 -21 18 0 38 33 41 38 4z"/>
<path d="M3478 6163 c-4 -30 -1 -33 22 -32 14 0 19 3 13 6 -19 7 -16 40 4 52
14 7 13 9 -9 8 -22 -2 -27 -8 -30 -34z"/>
<path d="M3650 6190 c-12 -8 -10 -10 10 -11 l25 -1 -25 -7 c-37 -10 -32 -35 8
-39 28 -3 32 0 32 20 0 22 -16 48 -29 48 -4 0 -13 -5 -21 -10z m30 -40 c0 -5
-7 -10 -15 -10 -8 0 -15 5 -15 10 0 6 7 10 15 10 8 0 15 -4 15 -10z"/>
<path d="M3743 6193 c-21 -8 -15 -33 7 -33 11 0 20 -5 20 -11 0 -6 -9 -9 -20
-6 -11 3 -20 1 -20 -5 0 -14 53 -5 58 10 2 7 -5 16 -17 19 -12 3 -21 10 -21
15 0 6 7 8 15 4 8 -3 15 -1 15 4 0 11 -16 12 -37 3z"/>
<path d="M3892 6191 c-8 -4 -12 -19 -10 -32 3 -27 43 -39 62 -18 8 9 7 10 -8
5 -25 -9 -50 12 -35 30 6 7 18 10 26 7 11 -4 14 -2 9 5 -8 14 -26 15 -44 3z"/>
<path d="M3976 6184 c-22 -22 -20 -33 9 -46 21 -9 29 -9 41 4 13 12 14 20 5
37 -14 25 -34 27 -55 5z m41 -10 c8 -21 -13 -42 -28 -27 -13 13 -5 43 11 43 6
0 13 -7 17 -16z"/>
<path d="M4055 6189 c-4 -6 -5 -12 -2 -15 2 -3 7 2 10 11 7 17 1 20 -8 4z"/>
<path d="M4545 6188 c-9 -25 2 -53 21 -55 10 -2 13 0 7 3 -18 8 -16 24 2 24 8
0 15 -7 15 -15 0 -8 4 -15 9 -15 5 0 6 15 2 33 -5 23 -13 33 -29 35 -12 2 -24
-3 -27 -10z m35 -8 c0 -5 -4 -10 -10 -10 -5 0 -10 5 -10 10 0 6 5 10 10 10 6
0 10 -4 10 -10z"/>
<path d="M4641 6187 c-13 -16 -5 -27 21 -27 11 0 16 -5 12 -11 -3 -6 -15 -9
-25 -6 -11 3 -19 1 -19 -4 0 -14 46 -11 59 4 13 16 5 27 -21 27 -11 0 -17 4
-13 10 3 5 13 6 22 3 11 -4 14 -3 9 5 -10 16 -31 15 -45 -1z"/>
<path d="M4824 6164 c1 -27 5 -34 21 -33 11 0 14 3 8 6 -18 7 -16 43 2 43 8 0
15 4 15 9 0 5 -11 9 -24 9 -20 0 -23 -5 -22 -34z"/>
<path d="M5156 6187 c-26 -19 -13 -57 19 -57 13 0 26 4 29 8 3 5 -5 8 -17 8
-13 -1 -23 6 -25 18 -3 15 1 18 22 14 28 -6 36 6 10 16 -20 8 -17 8 -38 -7z"/>
<path d="M5246 6187 c-26 -19 -13 -57 20 -57 13 0 24 4 24 9 0 5 -9 7 -21 4
-17 -5 -20 -2 -17 18 2 18 9 23 26 22 13 -2 21 1 17 7 -9 14 -28 13 -49 -3z"/>
<path d="M5410 6185 c-20 -25 -8 -50 25 -50 24 0 31 5 33 24 6 37 -34 55 -58
26z m40 -20 c0 -25 -23 -35 -35 -15 -10 16 2 40 20 40 9 0 15 -9 15 -25z"/>
<path d="M5494 6164 c1 -38 16 -48 16 -10 0 13 7 26 15 30 11 4 15 -2 15 -24
0 -17 5 -30 10 -30 14 0 12 46 -2 57 -7 5 -22 10 -34 10 -17 1 -20 -4 -20 -33z"/>
<path d="M4101 6183 c7 -41 -16 -60 -24 -20 -4 19 -4 18 -6 -5 -1 -25 3 -28
30 -28 24 0 30 3 25 16 -3 9 -6 22 -6 30 0 8 -4 14 -10 14 -5 0 -9 -3 -9 -7z"/>
<path d="M4408 6159 c3 -24 0 -36 -14 -46 -16 -12 -16 -13 -1 -13 30 0 49 78
21 87 -7 2 -9 -8 -6 -28z"/>
<path d="M4904 6176 c-10 -25 3 -46 28 -45 17 1 18 2 6 6 -25 6 -22 21 5 25
29 4 24 22 -8 26 -16 2 -27 -2 -31 -12z m43 -2 c-3 -3 -12 -4 -19 -1 -8 3 -5
6 6 6 11 1 17 -2 13 -5z"/>
<path d="M5607 6144 c-4 -4 -7 -14 -7 -23 0 -11 3 -12 11 -4 6 6 10 16 7 23
-2 6 -7 8 -11 4z"/>
<path d="M4727 6133 c-4 -3 -7 -11 -7 -17 0 -6 5 -5 12 2 6 6 9 14 7 17 -3 3
-9 2 -12 -2z"/>
<path d="M3898 6025 c3 -37 1 -55 -7 -55 -6 0 -11 -5 -11 -11 0 -8 5 -8 15 1
16 13 22 105 7 114 -5 3 -7 -19 -4 -49z"/>
<path d="M4122 6058 c-10 -13 -5 -68 7 -68 3 0 6 15 6 33 0 20 5 31 13 30 6
-2 12 2 12 7 0 14 -26 12 -38 -2z"/>
<path d="M3297 6019 c12 -23 18 -28 24 -18 5 8 4 15 -1 17 -6 2 -10 10 -10 18
0 8 -6 14 -14 14 -12 0 -12 -5 1 -31z"/>
<path d="M3336 6041 c-4 -5 -2 -20 3 -33 10 -23 10 -23 10 4 1 14 7 29 14 31
7 3 6 6 -5 6 -9 1 -19 -3 -22 -8z"/>
<path d="M3405 6040 c15 -7 16 -9 4 -9 -9 -1 -22 -7 -28 -15 -16 -19 7 -36 41
-29 24 5 25 7 16 34 -7 20 -16 29 -31 28 -21 0 -21 -1 -2 -9z m25 -36 c0 -2
-9 -4 -21 -4 -11 0 -18 4 -14 10 5 8 35 3 35 -6z"/>
<path d="M3477 6023 c-7 -34 4 -47 32 -38 24 7 29 35 7 35 -8 0 -18 5 -22 12
-5 8 0 9 14 6 12 -4 20 -2 16 3 -12 20 -42 9 -47 -18z m30 -19 c-3 -3 -12 -4
-19 -1 -8 3 -5 6 6 6 11 1 17 -2 13 -5z"/>
<path d="M3632 6021 c-1 -16 2 -32 8 -36 6 -4 10 7 10 25 0 21 4 30 13 27 6
-2 12 -16 12 -30 -1 -20 4 -27 18 -27 16 0 17 3 8 14 -7 8 -11 23 -9 33 2 14
-4 19 -27 21 -28 3 -31 0 -33 -27z"/>
<path d="M3743 6044 c9 -3 17 -10 17 -15 0 -6 -8 -9 -17 -7 -12 2 -18 -3 -18
-17 0 -15 8 -20 40 -22 22 -1 35 1 28 5 -6 4 -13 18 -14 32 -3 18 -11 25 -29
27 -14 1 -18 0 -7 -3z m17 -38 c0 -3 -4 -8 -10 -11 -5 -3 -10 -1 -10 4 0 6 5
11 10 11 6 0 10 -2 10 -4z"/>
<path d="M3817 6044 c-12 -12 -8 -24 7 -18 7 3 16 -2 20 -12 5 -13 2 -15 -14
-11 -13 3 -20 0 -20 -10 0 -9 8 -13 23 -11 17 2 22 10 22 33 0 29 -22 45 -38
29z"/>
<path d="M3955 6040 c-9 -15 3 -47 21 -54 23 -9 34 2 34 35 0 24 -4 29 -24 29
-14 0 -28 -5 -31 -10z m45 -26 c0 -16 -16 -19 -25 -4 -8 13 4 32 16 25 5 -4 9
-13 9 -21z"/>
<path d="M4187 6043 c-14 -14 -7 -52 12 -58 28 -9 51 5 51 30 0 28 -44 48 -63
28z m46 -17 c8 -20 -20 -43 -35 -28 -14 14 -3 42 16 42 7 0 16 -6 19 -14z"/>
<path d="M4275 6019 c0 -17 6 -30 16 -32 12 -3 14 2 11 24 -6 39 13 37 27 -3
14 -38 20 -34 14 9 -5 29 -9 32 -37 31 -27 -1 -31 -5 -31 -29z"/>
<path d="M4377 6044 c-13 -13 -7 -52 9 -58 9 -3 23 -2 32 4 14 8 12 9 -10 10
-16 0 -28 4 -28 8 0 5 10 8 23 8 28 -1 30 28 2 32 -12 2 -24 0 -28 -4z"/>
<path d="M4405 5880 c0 -42 3 -50 18 -50 12 0 16 4 10 13 -4 6 -6 21 -5 32 2
11 -3 28 -10 38 -11 15 -13 11 -13 -33z"/>
<path d="M4487 5889 c4 -29 2 -44 -8 -50 -10 -6 -5 -9 16 -8 17 0 24 3 18 6
-8 3 -13 23 -13 49 0 24 -4 44 -9 44 -5 0 -7 -18 -4 -41z"/>
<path d="M4684 5915 c4 -10 -1 -15 -15 -15 -22 0 -42 -39 -28 -55 5 -5 22 -10
37 -11 26 -1 27 0 24 47 -2 27 -8 49 -14 49 -6 0 -8 -7 -4 -15z m-1 -31 c9
-10 -12 -46 -24 -39 -14 9 -11 45 4 45 8 0 17 -3 20 -6z"/>
<path d="M5672 5882 c2 -47 4 -49 30 -48 33 1 35 7 8 24 -11 7 -20 23 -20 36
0 14 -5 28 -10 31 -6 4 -9 -12 -8 -43z"/>
<path d="M3658 5875 c3 -36 1 -45 -12 -45 -9 0 -16 -4 -16 -10 0 -5 8 -10 19
-10 13 0 20 10 25 31 10 49 7 79 -7 79 -8 0 -11 -14 -9 -45z"/>
<path d="M3727 5906 c-4 -9 -2 -18 3 -21 11 -7 1 -37 -14 -47 -6 -4 1 -8 16
-8 18 0 26 4 23 13 -2 6 -7 25 -9 41 -6 35 -12 41 -19 22z"/>
<path d="M4133 5898 c-15 -34 1 -68 32 -68 23 0 25 4 25 40 0 22 -4 40 -10 40
-5 0 -10 -16 -10 -35 0 -19 -5 -35 -10 -35 -17 0 -24 31 -12 51 14 22 15 29 4
29 -5 0 -13 -10 -19 -22z"/>
<path d="M4305 5875 c0 -45 1 -46 30 -43 24 2 31 8 33 30 3 22 -2 29 -22 34
-14 3 -26 10 -26 15 0 5 -3 9 -7 9 -5 0 -8 -20 -8 -45z m50 -15 c0 -8 -8 -16
-17 -18 -13 -2 -18 3 -18 18 0 15 5 20 18 18 9 -2 17 -10 17 -18z"/>
<path d="M4988 5908 c-2 -6 -2 -24 0 -40 5 -33 27 -47 45 -29 8 8 7 11 -5 11
-22 0 -32 18 -20 33 7 8 6 16 -3 24 -10 9 -15 9 -17 1z"/>
<path d="M5248 5907 c-9 -27 7 -72 27 -75 12 -2 16 0 9 5 -17 13 -24 41 -11
46 8 2 7 9 -5 20 -11 12 -17 13 -20 4z"/>
<path d="M3302 5873 c3 -32 7 -38 28 -40 14 -1 18 0 8 3 -21 6 -25 54 -5 54 8
0 7 4 -3 10 -26 17 -31 11 -28 -27z"/>
<path d="M3380 5879 c-20 -37 23 -64 60 -38 12 8 9 9 -12 5 -15 -3 -30 -2 -33
4 -4 6 5 10 19 10 29 0 36 24 10 34 -25 10 -33 7 -44 -15z m45 1 c3 -5 2 -10
-4 -10 -5 0 -13 5 -16 10 -3 6 -2 10 4 10 5 0 13 -4 16 -10z"/>
<path d="M3478 5863 c-4 -30 -2 -33 22 -32 14 0 19 3 13 6 -19 7 -16 40 5 52
14 9 13 10 -10 9 -22 -2 -27 -8 -30 -35z"/>
<path d="M3790 5894 c0 -9 30 -64 35 -64 2 0 11 14 20 30 14 27 14 30 0 30 -8
0 -14 -3 -14 -7 1 -5 1 -15 0 -23 -1 -13 -3 -13 -10 0 -6 8 -8 17 -5 21 2 4
-3 9 -11 13 -8 3 -15 3 -15 0z"/>
<path d="M3890 5889 c0 -6 7 -9 15 -6 8 4 17 2 20 -3 3 -5 -5 -10 -17 -12 -24
-3 -32 -28 -10 -36 7 -2 10 2 6 12 -3 9 -1 16 5 16 6 0 11 -7 11 -15 0 -8 6
-15 14 -15 16 0 10 51 -8 62 -16 11 -36 9 -36 -3z"/>
<path d="M3974 5888 c-4 -6 0 -16 9 -23 21 -15 22 -26 2 -19 -8 4 -15 1 -15
-5 0 -6 11 -11 25 -11 29 0 34 24 8 39 -16 9 -15 10 5 11 13 0 20 4 17 10 -8
14 -42 13 -51 -2z"/>
<path d="M4248 5894 c19 -9 14 -24 -8 -24 -13 0 -20 -7 -20 -20 0 -16 7 -20
36 -20 25 0 33 3 27 12 -4 7 -7 22 -8 33 0 12 -8 21 -20 22 -11 2 -14 0 -7 -3z
m9 -40 c-3 -3 -12 -4 -19 -1 -8 3 -5 6 6 6 11 1 17 -2 13 -5z"/>
<path d="M4551 5886 c-16 -20 2 -56 29 -56 31 0 34 20 3 21 -28 1 -28 1 -3 8
14 4 25 13 25 21 0 20 -39 24 -54 6z m39 -6 c0 -5 -7 -10 -16 -10 -8 0 -12 5
-9 10 3 6 10 10 16 10 5 0 9 -4 9 -10z"/>
<path d="M4814 5863 c0 -30 2 -33 28 -33 15 0 28 5 28 10 0 6 -10 10 -22 10
l-23 1 24 19 c26 22 26 22 -9 24 -22 2 -25 -2 -26 -31z"/>
<path d="M4907 5893 c-2 -5 -4 -21 -5 -36 -2 -25 1 -28 25 -25 33 4 43 27 14
35 -12 3 -21 10 -21 15 0 5 10 6 21 3 15 -5 19 -4 15 4 -8 12 -43 15 -49 4z
m33 -43 c0 -5 -7 -10 -15 -10 -8 0 -15 5 -15 10 0 6 7 10 15 10 8 0 15 -4 15
-10z"/>
<path d="M5080 5890 l25 -8 -22 -7 c-13 -4 -23 -15 -23 -26 0 -14 7 -18 33
-17 32 1 34 3 28 32 -6 26 -12 31 -36 33 -29 2 -29 2 -5 -7z m20 -34 c0 -11
-19 -15 -25 -6 -3 5 1 10 9 10 9 0 16 -2 16 -4z"/>
<path d="M5152 5864 c-2 -40 15 -46 20 -7 4 39 28 42 28 4 0 -17 4 -31 9 -31
5 0 5 15 2 32 -5 26 -12 33 -32 35 -23 1 -26 -2 -27 -33z"/>
<path d="M5318 5888 c22 -28 24 -59 5 -73 -15 -12 -16 -14 -2 -15 10 0 26 20
41 50 19 37 21 50 11 50 -7 0 -18 -10 -23 -22 l-9 -23 0 23 c-1 13 -7 22 -17
22 -12 0 -14 -4 -6 -12z"/>
<path d="M5410 5890 c0 -5 5 -10 10 -10 6 0 10 5 10 10 0 6 -4 10 -10 10 -5 0
-10 -4 -10 -10z"/>
<path d="M5430 5875 c-7 -14 -10 -28 -6 -32 4 -4 9 3 13 15 3 12 9 22 14 22 5
0 9 5 9 10 0 18 -17 10 -30 -15z"/>
<path d="M5497 5893 c-15 -15 -6 -52 14 -58 31 -10 55 16 40 44 -11 20 -41 28
-54 14z m40 -19 c8 -21 -13 -42 -28 -27 -13 13 -5 43 11 43 6 0 13 -7 17 -16z"/>
<path d="M5581 5878 c-5 -14 -5 -28 1 -35 12 -15 58 -17 58 -3 0 5 -10 9 -22
7 -17 -1 -23 3 -23 18 0 15 6 19 23 17 12 -2 22 2 22 7 0 6 -11 11 -25 11 -17
0 -28 -7 -34 -22z"/>
<path d="M5705 5889 c-11 -17 1 -21 15 -4 8 9 8 15 2 15 -6 0 -14 -5 -17 -11z"/>
<path d="M5760 5881 c0 -11 10 -23 23 -27 21 -8 21 -8 -8 -15 -30 -7 -30 -7 5
-6 40 2 50 30 13 35 -13 2 -23 8 -23 13 0 5 12 6 26 3 19 -5 25 -4 20 5 -4 6
-18 11 -32 11 -17 0 -24 -6 -24 -19z"/>
<path d="M4750 5866 c0 -13 -6 -27 -12 -29 -7 -3 -1 -6 14 -6 26 -1 26 0 17
29 -13 36 -19 38 -19 6z"/>
<path d="M3728 5680 c-3 -48 -2 -50 22 -49 14 0 19 3 13 6 -7 2 -13 22 -13 43
0 58 -18 58 -22 0z"/>
<path d="M4120 5678 c0 -52 8 -63 12 -15 3 29 18 26 18 -4 0 -10 4 -19 9 -19
12 0 9 16 -8 58 -19 47 -31 39 -31 -20z"/>
<path d="M4177 5723 c-8 -12 4 -94 12 -88 8 4 6 83 -2 91 -3 3 -7 1 -10 -3z"/>
<path d="M4905 5684 c0 -24 5 -44 10 -44 11 0 8 77 -4 84 -3 2 -6 -16 -6 -40z"/>
<path d="M5337 5691 c4 -27 2 -41 -6 -41 -6 0 -11 -4 -11 -10 0 -5 8 -10 18
-10 15 0 17 7 14 43 -2 23 -8 46 -12 51 -5 5 -6 -10 -3 -33z"/>
<path d="M5248 5710 c-12 -38 20 -98 37 -70 4 6 -1 10 -9 10 -22 0 -21 40 2
41 13 0 14 2 2 6 -8 3 -18 10 -21 16 -4 5 -8 4 -11 -3z"/>
<path d="M5413 5688 c3 -20 1 -40 -4 -45 -6 -6 -4 -10 6 -10 18 0 22 72 3 83
-8 5 -9 -3 -5 -28z"/>
<path d="M5483 5686 c3 -19 0 -39 -6 -45 -8 -8 -5 -11 12 -11 17 0 22 4 17 16
-3 9 -6 29 -6 45 0 16 -5 29 -11 29 -8 0 -10 -12 -6 -34z"/>
<path d="M3298 5668 c8 -18 17 -27 19 -21 5 15 -14 53 -27 53 -4 0 -1 -14 8
-32z"/>
<path d="M3321 5690 c0 -8 4 -24 9 -35 7 -18 9 -18 19 9 6 16 9 31 7 34 -3 3
-9 -3 -13 -13 -6 -18 -7 -18 -14 1 -5 12 -8 14 -8 4z"/>
<path d="M3384 5686 c-15 -40 15 -68 54 -50 13 6 9 9 -18 14 -32 7 -33 7 -7 9
21 1 28 5 25 19 -4 22 -46 29 -54 8z m33 -2 c-3 -3 -12 -4 -19 -1 -8 3 -5 6 6
6 11 1 17 -2 13 -5z"/>
<path d="M3470 5687 c0 -7 5 -18 12 -25 9 -9 9 -12 0 -12 -7 0 -12 -4 -12 -10
0 -5 11 -10 25 -10 14 0 25 5 25 10 0 6 -4 10 -9 10 -6 0 -9 9 -8 20 1 12 7
18 14 16 7 -3 13 -1 13 4 0 6 -13 10 -30 10 -18 0 -30 -5 -30 -13z"/>
<path d="M3804 5694 c-6 -2 -8 -18 -6 -34 4 -25 9 -30 33 -30 32 0 34 6 19 44
-9 25 -22 30 -46 20z m31 -14 c-3 -5 -10 -10 -16 -10 -5 0 -9 5 -9 10 0 6 7
10 16 10 8 0 12 -4 9 -10z m0 -30 c-3 -5 -10 -10 -16 -10 -5 0 -9 5 -9 10 0 6
7 10 16 10 8 0 12 -4 9 -10z"/>
<path d="M3890 5686 c0 -8 9 -18 20 -21 27 -9 16 -25 -13 -18 -17 5 -20 3 -10
-7 13 -14 63 -6 63 10 0 5 -12 17 -27 25 -24 14 -25 16 -5 12 12 -3 22 -1 22
4 0 5 -11 9 -25 9 -15 0 -25 -6 -25 -14z"/>
<path d="M3970 5671 c0 -33 11 -44 34 -35 21 8 20 30 -1 44 -15 9 -14 10 6 4
16 -4 21 -3 17 5 -4 6 -18 11 -32 11 -20 0 -24 -5 -24 -29z m35 -11 c3 -5 1
-10 -4 -10 -6 0 -11 5 -11 10 0 6 2 10 4 10 3 0 8 -4 11 -10z"/>
<path d="M4227 5693 c-2 -5 -3 -19 -3 -33 1 -21 6 -25 31 -25 30 1 34 11 20
53 -5 13 -41 17 -48 5z m33 -13 c0 -5 -7 -7 -15 -4 -8 4 -15 8 -15 10 0 2 7 4
15 4 8 0 15 -4 15 -10z m2 -32 c-9 -9 -15 -9 -24 0 -9 9 -7 12 12 12 19 0 21
-3 12 -12z"/>
<path d="M4317 5693 c-11 -19 -1 -58 16 -61 26 -5 34 28 11 46 -18 14 -18 14
4 9 12 -3 22 -1 22 4 0 11 -47 12 -53 2z m33 -37 c0 -11 -19 -15 -25 -6 -3 5
1 10 9 10 9 0 16 -2 16 -4z"/>
<path d="M4407 5694 c-4 -4 -1 -14 6 -22 9 -12 9 -16 0 -19 -21 -7 -15 -23 8
-23 16 0 19 4 13 23 -10 34 -19 48 -27 41z"/>
<path d="M4480 5665 c0 -19 5 -35 10 -35 6 0 10 14 10 31 0 38 24 35 28 -4 2
-15 8 -27 14 -27 5 0 7 7 4 16 -3 9 -6 24 -6 35 0 14 -7 19 -30 19 -28 0 -30
-3 -30 -35z"/>
<path d="M4650 5663 c0 -21 5 -33 14 -33 8 0 12 8 9 23 -3 17 2 26 19 34 22
10 21 11 -9 10 -31 0 -33 -3 -33 -34z"/>
<path d="M4735 5690 c-5 -9 -1 -10 15 -5 15 5 20 4 16 -4 -4 -6 -14 -11 -22
-11 -9 0 -14 -7 -12 -16 2 -8 6 -15 11 -15 4 1 16 1 28 1 16 0 20 5 17 28 -3
29 -40 44 -53 22z"/>
<path d="M4822 5688 c-18 -18 -15 -36 8 -48 14 -7 26 -8 38 -1 14 9 13 10 -10
11 -36 0 -40 36 -5 43 20 4 20 4 2 6 -12 0 -26 -4 -33 -11z"/>
<path d="M4950 5668 c0 -21 5 -38 10 -38 13 0 13 40 0 60 -7 11 -10 5 -10 -22z"/>
<path d="M5076 5669 c12 -25 18 -29 25 -18 23 34 29 49 21 49 -6 0 -13 -10
-16 -22 l-7 -23 -9 23 c-5 12 -14 22 -20 22 -6 0 -4 -13 6 -31z"/>
<path d="M5151 5686 c-24 -29 14 -65 50 -46 26 15 24 17 -11 12 -33 -5 -37 2
-16 23 10 10 16 11 24 3 7 -7 15 -8 19 -4 9 9 -16 26 -38 26 -9 0 -22 -6 -28
-14z"/>
<path d="M5552 5688 c-18 -18 -15 -36 7 -48 29 -15 38 -12 15 5 -18 14 -18 14
9 15 22 0 28 4 25 18 -4 21 -39 27 -56 10z m43 -8 c3 -5 -3 -10 -15 -10 -12 0
-18 5 -15 10 3 6 10 10 15 10 5 0 12 -4 15 -10z"/>
<path d="M5723 5693 c-7 -2 -13 -15 -13 -28 0 -28 31 -42 57 -25 15 10 14 10
-8 6 -44 -10 -48 36 -4 47 l20 5 -20 0 c-11 0 -26 -2 -32 -5z"/>
<path d="M5801 5687 c-15 -18 -5 -44 20 -52 26 -9 51 13 47 39 -4 25 -49 34
-67 13z m52 -11 c8 -19 -15 -37 -32 -26 -17 10 -7 40 13 40 7 0 16 -6 19 -14z"/>
<path d="M5898 5664 c3 -22 10 -34 19 -34 13 0 13 3 3 15 -16 19 4 47 27 38
10 -4 14 -2 9 5 -3 6 -19 10 -34 10 -25 -1 -27 -4 -24 -34z"/>
<path d="M5975 5690 c-9 -15 4 -30 26 -30 10 0 19 -5 19 -11 0 -6 -9 -9 -20
-6 -11 3 -20 1 -20 -5 0 -5 10 -8 23 -6 17 2 23 11 25 36 3 28 0 32 -22 32
-14 0 -28 -4 -31 -10z m42 -6 c-3 -3 -12 -4 -19 -1 -8 3 -5 6 6 6 11 1 17 -2
13 -5z"/>
<path d="M3564 5649 c-3 -6 -1 -16 5 -22 8 -8 11 -5 11 11 0 24 -5 28 -16 11z"/>
<path d="M3650 5635 c0 -8 5 -15 10 -15 6 0 10 7 10 15 0 8 -4 15 -10 15 -5 0
-10 -7 -10 -15z"/>
<path d="M5640 5635 c0 -8 5 -15 10 -15 6 0 10 7 10 15 0 8 -4 15 -10 15 -5 0
-10 -7 -10 -15z"/>
<path d="M3620 5560 c0 -5 5 -10 10 -10 6 0 10 5 10 10 0 6 -4 10 -10 10 -5 0
-10 -4 -10 -10z"/>
<path d="M4394 5554 c3 -9 6 -31 6 -50 0 -33 2 -35 28 -32 23 3 27 8 27 33 0
25 -4 30 -22 29 -16 0 -23 5 -23 18 0 10 -5 18 -11 18 -6 0 -8 -7 -5 -16z m53
-40 c8 -21 -13 -42 -28 -27 -13 13 -5 43 11 43 6 0 13 -7 17 -16z"/>
<path d="M4587 5535 c3 -21 1 -41 -7 -50 -11 -13 -8 -15 14 -15 14 0 26 5 26
10 0 6 -4 10 -10 10 -5 0 -10 15 -10 34 0 19 -4 37 -9 41 -6 3 -7 -9 -4 -30z"/>
<path d="M3546 5523 c3 -16 7 -34 10 -40 4 -16 30 -17 39 -2 4 6 0 9 -10 7
-25 -4 -29 16 -8 38 17 17 17 17 1 11 -10 -3 -18 -2 -18 3 0 6 -5 10 -10 10
-6 0 -8 -12 -4 -27z"/>
<path d="M3308 5529 c6 -7 12 -21 12 -30 0 -10 -6 -20 -12 -22 -7 -3 1 -6 17
-6 17 0 25 3 19 7 -7 4 -14 18 -15 31 -2 14 -11 26 -19 29 -12 4 -13 2 -2 -9z"/>
<path d="M3384 5526 c-11 -29 1 -51 26 -51 32 0 38 28 8 43 l-23 12 24 -6 c16
-4 21 -3 17 5 -10 16 -46 14 -52 -3z m36 -36 c0 -5 -7 -10 -15 -10 -8 0 -15 5
-15 10 0 6 7 10 15 10 8 0 15 -4 15 -10z"/>
<path d="M3630 5521 c0 -11 -3 -26 -6 -35 -3 -9 -1 -16 4 -16 6 0 12 12 14 27
4 39 28 42 28 4 0 -17 5 -31 10 -31 11 0 13 30 4 54 -9 24 -54 21 -54 -3z"/>
<path d="M3723 5528 c-16 -20 2 -58 27 -58 25 0 17 20 -8 21 -10 0 -5 5 11 11
15 5 26 15 24 22 -5 16 -42 19 -54 4z"/>
<path d="M3887 5533 c-10 -10 -8 -51 3 -58 5 -3 20 -3 34 1 18 4 23 11 20 27
-5 30 -40 48 -57 30z m33 -13 c0 -5 -4 -10 -10 -10 -5 0 -10 5 -10 10 0 6 5
10 10 10 6 0 10 -4 10 -10z m2 -32 c-9 -9 -15 -9 -24 0 -9 9 -7 12 12 12 19 0
21 -3 12 -12z"/>
<path d="M3979 5538 c-7 -24 -5 -38 7 -38 8 0 14 8 15 18 0 10 3 12 6 4 5 -13
23 -7 23 9 0 7 -48 14 -51 7z"/>
<path d="M4126 5493 c1 -45 15 -66 29 -44 3 6 0 11 -7 12 -7 1 -2 4 11 8 55
15 49 71 -8 71 -25 0 -26 -3 -25 -47z m51 21 c7 -18 -17 -38 -31 -24 -11 11
-1 40 14 40 6 0 13 -7 17 -16z"/>
<path d="M4224 5526 c-10 -25 0 -51 21 -54 20 -4 20 -4 0 12 -20 15 -20 15 2
16 12 0 24 -6 26 -12 3 -7 6 -4 6 8 2 37 -43 61 -55 30z m33 -2 c-3 -3 -12 -4
-19 -1 -8 3 -5 6 6 6 11 1 17 -2 13 -5z"/>
<path d="M4307 5533 c-2 -5 -3 -15 -2 -23 1 -8 3 -26 4 -40 2 -14 5 -19 8 -12
2 6 10 12 18 12 20 0 37 27 30 50 -6 20 -49 29 -58 13z m42 -40 c-15 -18 -34
-1 -25 22 5 14 9 15 21 5 12 -10 13 -16 4 -27z"/>
<path d="M4491 5531 c-9 -6 -11 -18 -7 -35 5 -19 13 -26 32 -26 22 0 25 4 22
32 -3 34 -22 45 -47 29z m33 -17 c7 -18 0 -34 -15 -34 -5 0 -9 11 -9 25 0 28
15 34 24 9z"/>
<path d="M4649 5514 c-12 -32 -7 -38 32 -40 26 -2 28 1 23 25 -9 36 -13 41
-30 41 -8 0 -19 -12 -25 -26z m31 6 c0 -5 -4 -10 -10 -10 -5 0 -10 5 -10 10 0
6 5 10 10 10 6 0 10 -4 10 -10z m7 -26 c-3 -3 -12 -4 -19 -1 -8 3 -5 6 6 6 11
1 17 -2 13 -5z"/>
<path d="M4747 5533 c-11 -10 -8 -51 3 -58 13 -8 50 4 50 16 0 5 -10 9 -22 9
-19 0 -20 -2 -8 -11 13 -9 13 -10 0 -6 -22 5 -19 42 3 41 9 -1 17 2 17 7 0 10
-34 12 -43 2z"/>
<path d="M4825 5530 c-4 -6 1 -7 12 -4 13 4 11 0 -6 -14 -29 -24 -21 -41 19
-40 27 1 29 4 23 27 -3 14 -8 29 -10 34 -6 10 -31 9 -38 -3z m32 -36 c-3 -3
-12 -4 -19 -1 -8 3 -5 6 6 6 11 1 17 -2 13 -5z"/>
<path d="M4917 5533 c-13 -12 -7 -33 8 -33 8 0 15 -4 15 -9 0 -5 -10 -7 -22
-4 -18 5 -20 3 -12 -7 15 -15 54 -4 54 16 0 8 -7 14 -15 14 -8 0 -15 5 -15 11
0 6 7 9 15 5 8 -3 15 -1 15 4 0 11 -33 14 -43 3z"/>
<path d="M4990 5525 c-24 -29 17 -72 43 -45 9 9 8 11 -8 8 -14 -2 -20 3 -20
17 0 14 6 19 18 17 9 -2 17 2 17 8 0 15 -36 12 -50 -5z"/>
<path d="M5071 5521 c-15 -28 19 -57 48 -41 24 12 27 30 9 48 -18 18 -46 15
-57 -7z m49 -10 c0 -11 -5 -23 -11 -27 -15 -9 -33 12 -26 30 9 23 37 20 37 -3z"/>
<path d="M5161 5513 c0 -17 4 -35 10 -38 15 -10 24 2 12 17 -6 7 -13 22 -16
33 -3 13 -5 9 -6 -12z"/>
<path d="M5203 5510 c-2 -25 1 -30 20 -29 12 0 16 3 10 6 -7 2 -13 16 -13 29
0 35 -15 30 -17 -6z"/>
<path d="M5248 5505 c2 -19 8 -35 12 -35 11 0 6 63 -6 67 -6 2 -8 -11 -6 -32z"/>
<path d="M5288 5510 c2 -16 8 -30 12 -30 12 0 5 53 -7 57 -5 2 -8 -10 -5 -27z"/>
<path d="M5330 5525 c-16 -20 -5 -45 20 -45 27 0 26 -18 -2 -23 -21 -4 -21 -4
3 -6 23 -1 27 4 36 44 10 45 10 45 -17 45 -15 0 -33 -7 -40 -15z m40 -15 c0
-11 -7 -20 -15 -20 -8 0 -15 9 -15 20 0 11 7 20 15 20 8 0 15 -9 15 -20z"/>
<path d="M5435 5500 c-1 -23 3 -36 8 -31 13 13 15 71 3 71 -6 0 -11 -18 -11
-40z"/>
<path d="M4005 5490 c-3 -5 -12 -7 -20 -3 -8 3 -15 0 -15 -6 0 -6 11 -11 25
-11 16 0 25 6 25 15 0 17 -6 19 -15 5z"/>
<path d="M3541 5286 c3 -53 28 -67 60 -35 21 21 21 40 0 47 -9 3 -11 -2 -6
-17 4 -15 1 -23 -10 -27 -23 -9 -31 4 -17 26 7 12 8 20 2 20 -5 0 -10 7 -10
15 0 8 -5 15 -10 15 -7 0 -10 -19 -9 -44z"/>
<path d="M3651 5309 c6 -12 9 -32 6 -45 -2 -14 1 -24 7 -24 7 0 10 16 8 45 -3
31 -9 45 -18 45 -12 0 -12 -4 -3 -21z"/>
<path d="M4019 5323 c-1 -5 -1 -11 -1 -14 1 -4 -10 -10 -24 -13 -19 -5 -24
-12 -22 -28 2 -12 10 -23 18 -26 12 -4 13 -2 3 9 -17 18 -16 29 2 29 8 0 15
-9 15 -20 0 -13 6 -20 18 -19 9 0 12 3 6 5 -8 3 -10 20 -7 44 3 22 3 40 -1 40
-3 0 -7 -3 -7 -7z"/>
<path d="M4105 5309 c6 -18 4 -20 -13 -15 -15 5 -24 1 -32 -14 -14 -26 -5 -40
23 -39 17 1 18 2 5 6 -10 2 -18 13 -18 24 0 32 34 19 43 -16 2 -11 5 1 6 28 1
27 -3 47 -10 47 -6 0 -8 -9 -4 -21z"/>
<path d="M4319 5314 c-1 -10 0 -27 1 -38 1 -10 -4 -23 -12 -27 -9 -6 -5 -9 13
-9 26 0 27 1 17 42 -10 48 -17 60 -19 32z"/>
<path d="M4486 5318 c-13 -30 -3 -73 19 -76 19 -3 19 -2 2 8 -12 8 -15 16 -9
23 5 7 6 23 2 37 -6 21 -8 22 -14 8z"/>
<path d="M5249 5309 c-10 -28 6 -64 29 -65 19 -1 19 -1 2 3 -27 6 -25 31 3 43
22 9 22 9 0 9 -12 1 -23 6 -25 13 -3 8 -6 7 -9 -3z"/>
<path d="M3310 5304 c-18 -5 -27 -94 -10 -94 6 0 10 6 10 14 0 8 10 16 23 18
14 2 23 11 25 27 3 21 -13 43 -28 40 -3 -1 -12 -3 -20 -5z m38 -31 c-5 -26
-38 -29 -38 -4 0 15 6 21 21 21 14 0 19 -5 17 -17z"/>
<path d="M3895 5296 c-12 -9 -15 -19 -10 -35 9 -30 59 -26 63 6 4 29 -28 47
-53 29z m40 -26 c0 -8 -8 -16 -17 -18 -13 -2 -18 3 -18 18 0 15 5 20 18 18 9
-2 17 -10 17 -18z"/>
<path d="M4389 5306 c-7 -10 -1 -66 7 -66 6 0 10 10 10 21 -1 12 5 24 12 26 7
3 12 -5 12 -21 0 -14 4 -26 8 -26 5 0 7 13 4 29 -3 21 -11 30 -28 34 -13 2
-24 4 -25 3z"/>
<path d="M4908 5304 c-3 -3 -3 -17 1 -32 5 -19 14 -28 32 -29 14 -1 17 0 7 3
-20 6 -25 44 -5 44 8 0 7 4 -3 10 -17 11 -24 12 -32 4z"/>
<path d="M5010 5301 c-19 -5 -25 -13 -25 -33 -1 -16 5 -28 12 -28 7 0 12 3 12
8 -4 26 4 41 24 44 12 2 18 6 12 9 -5 3 -21 3 -35 0z"/>
<path d="M5494 5293 c-22 -23 -13 -47 21 -54 l30 -6 -25 -11 -25 -12 25 3 c21
2 26 8 31 44 5 38 3 42 -18 46 -14 2 -31 -2 -39 -10z m36 -23 c0 -11 -7 -20
-15 -20 -8 0 -15 9 -15 20 0 11 7 20 15 20 8 0 15 -9 15 -20z"/>
<path d="M3380 5276 c0 -30 20 -47 48 -39 16 4 22 13 22 34 0 16 -4 29 -10 29
-5 0 -10 -11 -10 -25 0 -16 -6 -25 -15 -25 -9 0 -15 9 -15 25 0 14 -4 25 -10
25 -5 0 -10 -11 -10 -24z"/>
<path d="M3479 5291 c8 -5 12 -18 8 -30 -3 -12 -2 -21 3 -21 4 0 10 14 12 30
4 25 1 30 -16 30 -16 0 -18 -2 -7 -9z"/>
<path d="M3807 5293 c-4 -3 -7 -17 -7 -30 0 -19 5 -23 28 -22 26 0 26 1 5 9
-13 5 -23 16 -23 24 0 8 10 17 23 19 20 4 20 4 1 6 -11 0 -24 -2 -27 -6z"/>
<path d="M4157 5293 c-4 -3 -7 -16 -7 -29 0 -24 21 -37 45 -28 25 10 17 21
-12 17 -25 -4 -26 -3 -9 8 15 9 16 13 5 20 -11 7 -11 9 3 9 9 0 19 -6 21 -12
3 -8 6 -6 6 5 1 11 -6 17 -22 17 -13 0 -27 -3 -30 -7z"/>
<path d="M4553 5284 c-8 -21 28 -57 50 -48 26 10 20 22 -8 16 -20 -3 -25 0
-25 17 0 23 25 29 33 9 2 -7 8 -10 12 -6 12 12 -5 28 -31 28 -14 0 -27 -7 -31
-16z"/>
<path d="M4645 5280 c-9 -28 2 -40 33 -39 26 0 26 1 5 9 -29 12 -32 45 -3 37
11 -3 20 -1 20 4 0 19 -49 9 -55 -11z"/>
<path d="M4732 5271 c-1 -28 2 -31 29 -31 27 0 30 3 27 28 -2 21 -9 28 -29 30
-23 3 -26 -1 -27 -27z m35 13 c-3 -3 -12 -4 -19 -1 -8 3 -5 6 6 6 11 1 17 -2
13 -5z m3 -24 c0 -5 -7 -10 -16 -10 -8 0 -12 5 -9 10 3 6 10 10 16 10 5 0 9
-4 9 -10z"/>
<path d="M4820 5285 c0 -8 9 -15 20 -15 30 0 24 -18 -7 -23 -26 -4 -26 -4 5
-6 29 -1 32 2 32 29 0 25 -4 30 -25 30 -16 0 -25 -6 -25 -15z"/>
<path d="M5084 5291 c19 -7 19 -8 -3 -14 -32 -8 -21 -32 15 -34 28 -1 30 1 26
28 -4 24 -9 29 -31 28 -22 0 -23 -1 -7 -8z m16 -31 c0 -5 -7 -10 -16 -10 -8 0
-12 5 -9 10 3 6 10 10 16 10 5 0 9 -4 9 -10z"/>
<path d="M5157 5293 c-22 -22 17 -74 43 -58 16 10 12 25 -5 19 -20 -8 -35 4
-28 22 3 9 13 14 24 11 11 -3 22 -1 25 4 6 10 -49 13 -59 2z"/>
<path d="M5335 5279 c5 -14 2 -25 -6 -30 -11 -6 -9 -9 7 -9 17 0 20 5 16 30
-2 17 -9 30 -14 30 -5 0 -6 -10 -3 -21z"/>
<path d="M5398 5271 c-3 -19 0 -31 7 -31 6 0 11 10 11 21 -1 12 5 24 12 26 7
3 12 -5 12 -21 0 -14 5 -26 11 -26 6 0 9 12 7 28 -2 21 -9 28 -29 30 -23 3
-27 -1 -31 -27z"/>
<path d="M5600 5290 c0 -5 7 -10 16 -10 8 0 12 5 9 10 -3 6 -10 10 -16 10 -5
0 -9 -4 -9 -10z"/>
<path d="M5600 5239 c0 -11 5 -17 10 -14 6 3 10 13 10 21 0 8 -4 14 -10 14 -5
0 -10 -9 -10 -21z"/>
<path d="M3728 5243 c6 -2 18 -2 25 0 6 3 1 5 -13 5 -14 0 -19 -2 -12 -5z"/>
<path d="M4165 5171 c-3 -6 -3 -17 2 -23 4 -7 6 -23 4 -35 -1 -14 3 -23 11
-23 9 0 13 13 12 42 -1 41 -15 60 -29 39z"/>
<path d="M3717 5151 c-5 -22 7 -48 17 -33 3 6 3 17 0 25 -3 10 1 17 13 20 15
4 15 5 -3 6 -13 1 -24 -6 -27 -18z"/>
<path d="M4075 5125 c0 -25 2 -45 6 -45 8 0 16 49 11 73 -7 33 -17 17 -17 -28z"/>
<path d="M4229 5160 c-6 -43 -2 -70 9 -70 11 0 17 28 13 54 -1 5 4 13 11 17 9
6 6 9 -9 9 -13 0 -24 -4 -24 -10z"/>
<path d="M4400 5153 c0 -13 5 -23 10 -23 13 0 13 11 0 30 -8 12 -10 11 -10 -7z"/>
<path d="M3977 5153 c-4 -3 -7 -19 -7 -35 0 -25 4 -28 30 -28 18 0 33 6 36 15
7 18 -14 47 -28 39 -6 -4 -13 -1 -17 5 -4 6 -10 8 -14 4z m40 -33 c1 -14 -4
-20 -18 -20 -24 0 -25 16 -1 29 9 6 17 11 17 11 1 0 1 -9 2 -20z"/>
<path d="M4143 5142 c-1 -9 -3 -23 -5 -31 -2 -7 2 -15 7 -17 6 -2 10 9 10 25
0 32 -10 51 -12 23z"/>
<path d="M4495 5150 c-3 -5 -11 -7 -19 -4 -9 4 -11 -4 -7 -28 3 -23 6 -27 9
-13 6 30 20 41 34 27 8 -8 8 -15 -1 -25 -9 -12 -8 -16 4 -21 12 -4 15 2 15 28
0 33 -23 56 -35 36z"/>
<path d="M3890 5131 c0 -10 6 -18 13 -17 6 0 13 -3 14 -9 1 -5 -6 -8 -15 -7
-12 3 -14 0 -7 -7 13 -13 57 -2 52 13 -2 6 -14 17 -28 24 l-24 13 27 -4 c15
-2 25 0 22 4 -3 5 -16 9 -30 9 -17 0 -24 -6 -24 -19z"/>
<path d="M4312 5141 c-21 -13 -10 -46 16 -49 12 -2 22 1 22 6 0 5 -8 9 -17 8
-10 0 -18 6 -18 14 0 10 8 14 23 13 13 -2 21 1 17 7 -8 12 -25 13 -43 1z"/>
<path d="M4565 5137 c-10 -8 -15 -19 -11 -25 10 -17 26 -15 20 2 -6 15 12 31
20 18 9 -16 -6 -52 -23 -53 -10 0 -11 -2 -3 -6 6 -2 10 -9 7 -14 -4 -5 1 -6 8
-3 26 10 38 94 14 94 -7 0 -21 -6 -32 -13z"/>
<path d="M3648 5132 c7 -5 10 -16 6 -25 -3 -10 -1 -17 5 -17 6 0 11 11 11 25
0 17 -5 25 -17 25 -13 0 -15 -2 -5 -8z"/>
<path d="M3837 5118 c-9 -31 -2 -33 11 -3 6 14 8 25 3 25 -5 0 -11 -10 -14
-22z"/>
<path d="M4404 5111 c4 -5 0 -12 -6 -14 -7 -3 -3 -6 9 -6 16 -1 21 3 17 14 -4
8 -10 15 -16 15 -5 0 -7 -4 -4 -9z"/>
<path d="M3718 5093 c7 -3 16 -2 19 1 4 3 -2 6 -13 5 -11 0 -14 -3 -6 -6z"/>
<path d="M5055 4990 c0 -41 3 -50 18 -50 14 0 16 4 7 19 -5 11 -10 33 -10 50
0 17 -3 31 -7 31 -5 0 -8 -22 -8 -50z"/>
<path d="M3989 4988 c-4 -46 -3 -48 21 -47 14 0 19 3 13 6 -7 2 -13 14 -14 26
0 12 -4 31 -8 42 -6 15 -9 9 -12 -27z"/>
<path d="M4068 4986 c-2 -38 0 -46 13 -46 15 0 16 6 7 42 -12 57 -15 57 -20 4z"/>
<path d="M4489 4988 c-4 -46 -3 -48 21 -48 14 0 20 4 14 8 -6 4 -16 25 -21 47
l-10 40 -4 -47z"/>
<path d="M4590 5008 c4 -40 0 -58 -10 -58 -17 0 -24 31 -9 40 7 5 11 11 8 14
-3 3 -13 0 -21 -7 -24 -18 -6 -57 26 -57 28 0 33 10 28 56 -5 37 -25 48 -22
12z"/>
<path d="M5310 4996 c0 -37 10 -56 31 -56 10 0 19 4 19 10 0 5 -7 7 -15 4 -11
-5 -15 1 -15 20 0 14 6 26 13 26 8 0 7 4 -3 10 -23 15 -30 12 -30 -14z"/>
<path d="M3280 5005 c0 -9 40 -70 41 -62 5 25 2 34 -13 50 -18 17 -28 22 -28
12z"/>
<path d="M3330 4998 c0 -17 20 -47 20 -31 0 6 3 18 6 27 4 11 1 16 -10 16 -9
0 -16 -6 -16 -12z"/>
<path d="M3381 4992 c-12 -23 4 -52 29 -52 10 0 21 4 24 9 4 5 -2 7 -13 4 -10
-3 -22 0 -25 6 -5 7 4 11 24 11 28 0 30 2 20 20 -13 25 -46 26 -59 2z m44 -2
c3 -5 -1 -10 -9 -10 -9 0 -16 5 -16 10 0 6 4 10 9 10 6 0 13 -4 16 -10z"/>
<path d="M3475 4975 c0 -21 5 -35 13 -35 13 0 16 28 6 54 -10 27 -19 18 -19
-19z"/>
<path d="M3505 5000 c-3 -5 3 -10 15 -10 12 0 18 5 15 10 -3 6 -10 10 -15 10
-5 0 -12 -4 -15 -10z"/>
<path d="M3648 4998 c16 -16 15 -45 0 -51 -7 -3 0 -6 17 -6 22 -1 26 2 17 11
-7 7 -12 22 -12 35 0 15 -6 23 -17 23 -13 0 -14 -3 -5 -12z"/>
<path d="M3724 4998 c-3 -4 -1 -8 5 -8 7 0 7 -8 1 -25 -9 -23 -7 -25 18 -24
15 0 21 3 15 6 -19 7 -16 43 3 43 8 0 13 4 9 9 -6 11 -44 10 -51 -1z"/>
<path d="M3885 4966 c1 -23 -3 -44 -9 -48 -7 -5 -4 -8 7 -8 9 0 17 7 17 15 0
8 9 15 20 15 13 0 22 9 26 25 8 31 5 34 -32 38 -29 4 -30 3 -29 -37z m53 7
c-5 -26 -38 -29 -38 -4 0 15 6 21 21 21 14 0 19 -5 17 -17z"/>
<path d="M4146 4997 c-26 -19 -17 -51 17 -55 15 -2 27 1 27 6 0 6 -9 8 -21 5
-17 -5 -20 -2 -17 18 2 16 9 24 20 23 10 -1 15 2 12 7 -7 12 -17 11 -38 -4z"/>
<path d="M4295 4993 c4 -10 10 -26 12 -35 3 -10 8 -18 12 -18 9 1 42 70 32 70
-4 0 -13 -10 -19 -22 l-11 -23 -7 23 c-3 12 -11 22 -16 22 -6 0 -7 -8 -3 -17z"/>
<path d="M4390 4996 c-27 -33 18 -72 48 -42 13 13 14 20 6 34 -15 23 -38 26
-54 8z m44 -5 c9 -14 -4 -41 -19 -41 -21 0 -28 19 -15 35 14 17 26 19 34 6z"/>
<path d="M4782 4998 c-21 -21 -13 -38 17 -38 35 0 48 15 31 35 -15 18 -32 19
-48 3z m43 -8 c4 -6 -6 -10 -22 -10 -22 0 -25 2 -13 10 19 12 27 12 35 0z"/>
<path d="M4860 5001 c0 -5 5 -11 10 -13 6 -2 2 -13 -10 -26 -11 -12 -16 -22
-11 -22 6 0 15 8 20 18 10 16 10 16 11 0 0 -10 5 -18 11 -18 7 0 9 9 5 23 -3
12 -6 28 -6 35 0 6 -7 12 -15 12 -8 0 -15 -4 -15 -9z"/>
<path d="M4912 5001 c-9 -5 -11 -17 -6 -34 7 -29 21 -37 21 -12 0 8 -4 15 -9
15 -5 0 -4 9 2 20 12 22 11 23 -8 11z"/>
<path d="M4950 4960 c0 -27 5 -50 10 -50 6 0 10 7 10 15 0 8 9 15 19 15 24 0
37 36 21 55 -7 8 -23 15 -36 15 -22 0 -24 -4 -24 -50z m50 15 c0 -16 -6 -25
-15 -25 -9 0 -15 9 -15 25 0 16 6 25 15 25 9 0 15 -9 15 -25z"/>
<path d="M5131 4996 c-19 -22 -4 -56 24 -56 13 0 27 5 30 10 4 7 -2 9 -19 4
-16 -4 -26 -2 -26 5 0 6 12 11 26 11 19 0 25 5 22 18 -4 22 -41 27 -57 8z m44
-6 c3 -5 -3 -10 -15 -10 -12 0 -18 5 -15 10 3 6 10 10 15 10 5 0 12 -4 15 -10z"/>
<path d="M5226 4994 c-12 -12 -13 -20 -6 -35 11 -19 44 -26 54 -11 3 5 -5 8
-17 8 -16 -1 -22 5 -22 19 0 15 6 19 23 18 13 -2 21 1 17 7 -9 15 -31 12 -49
-6z"/>
<path d="M5396 4994 c-19 -19 -20 -26 -4 -42 30 -30 78 0 58 37 -13 25 -33 27
-54 5z m42 -22 c2 -14 -2 -22 -12 -22 -19 0 -29 17 -22 36 8 22 30 12 34 -14z"/>
<path d="M5483 4974 c-1 -40 14 -46 19 -6 4 33 22 32 26 -3 4 -32 22 -33 22
-1 0 27 -16 42 -46 43 -16 1 -20 -5 -21 -33z"/>
<path d="M5586 4994 c-10 -9 -15 -23 -12 -31 3 -8 6 -17 6 -19 0 -2 11 -4 25
-4 14 0 25 4 25 9 0 5 -9 7 -20 4 -15 -4 -20 0 -20 15 0 12 5 24 10 27 6 3 10
1 10 -4 0 -6 5 -11 11 -11 13 0 7 22 -8 27 -6 2 -18 -4 -27 -13z"/>
<path d="M5670 4995 c-20 -24 -3 -57 28 -53 37 4 43 38 7 38 -14 0 -24 4 -20
10 3 5 13 6 22 3 11 -4 14 -3 9 5 -10 16 -31 15 -46 -3z m45 -35 c-3 -5 -13
-10 -21 -10 -8 0 -14 5 -14 10 0 6 9 10 21 10 11 0 17 -4 14 -10z"/>
<path d="M4651 4952 c-7 -13 -11 -26 -8 -28 8 -8 29 25 25 38 -3 8 -9 4 -17
-10z"/>
<path d="M4793 4943 c9 -2 23 -2 30 0 6 3 -1 5 -18 5 -16 0 -22 -2 -12 -5z"/>
<path d="M3744 4853 c-4 -21 -11 -44 -17 -50 -7 -9 -5 -13 6 -13 9 0 17 12 19
33 3 17 8 40 13 50 4 10 3 17 -3 17 -6 0 -14 -17 -18 -37z"/>
<path d="M3819 4874 c0 -5 -1 -28 -3 -51 -1 -26 2 -43 9 -43 11 0 12 86 1 97
-3 4 -6 2 -7 -3z"/>
<path d="M4160 4860 c0 -5 0 -11 0 -12 -1 -2 -5 -20 -9 -40 -5 -23 -5 -38 0
-38 11 0 15 11 24 63 4 23 2 37 -5 37 -5 0 -10 -4 -10 -10z"/>
<path d="M3397 4848 c-9 -5 -17 -20 -17 -33 0 -21 5 -25 30 -25 17 0 30 4 30
9 0 5 -8 7 -19 4 -10 -3 -22 0 -25 6 -5 7 3 11 18 11 16 0 26 6 26 14 0 19
-22 26 -43 14z"/>
<path d="M4226 4851 c-3 -5 5 -11 19 -13 28 -6 34 6 9 16 -20 8 -22 8 -28 -3z"/>
<path d="M4305 4833 c2 -16 4 -34 4 -40 1 -7 8 -13 16 -13 18 0 20 17 3 22
-10 4 -10 10 -1 31 11 24 11 27 -7 27 -15 0 -18 -6 -15 -27z"/>
<path d="M4475 4840 c-22 -24 -9 -50 25 -50 29 0 40 13 32 42 -6 24 -38 29
-57 8z m45 -20 c0 -13 -7 -20 -20 -20 -13 0 -20 7 -20 20 0 13 7 20 20 20 13
0 20 -7 20 -20z"/>
<path d="M4656 4844 c-9 -8 -16 -21 -16 -28 0 -17 21 -33 38 -30 6 1 17 2 22
3 6 0 10 6 10 11 0 6 -11 8 -25 4 -21 -5 -25 -3 -25 15 0 23 25 29 33 9 2 -7
8 -10 12 -6 8 8 -12 38 -26 38 -4 0 -15 -7 -23 -16z"/>
<path d="M3294 4838 c3 -7 9 -21 12 -30 9 -25 16 -22 36 12 14 24 14 30 3 30
-7 0 -16 -10 -18 -22 l-4 -23 -8 23 c-4 12 -12 22 -17 22 -5 0 -7 -6 -4 -12z"/>
<path d="M3467 4844 c-10 -10 2 -24 19 -24 8 0 12 5 9 10 -3 6 0 10 8 10 25 0
14 -35 -13 -41 -23 -6 -22 -7 8 -8 29 -1 32 2 32 29 0 26 -4 30 -28 30 -16 0
-32 -3 -35 -6z"/>
<path d="M3895 4825 c2 -14 -1 -25 -6 -25 -6 0 -7 -4 -4 -10 12 -20 25 -10 25
19 0 20 6 31 18 34 11 3 8 5 -9 6 -22 1 -26 -3 -24 -24z"/>
<path d="M3970 4820 c0 -27 3 -30 30 -30 19 0 30 5 30 14 0 30 -13 46 -36 46
-20 0 -24 -5 -24 -30z m37 14 c-3 -3 -12 -4 -19 -1 -8 3 -5 6 6 6 11 1 17 -2
13 -5z m6 -31 c-7 -2 -19 -2 -25 0 -7 3 -2 5 12 5 14 0 19 -2 13 -5z"/>
<path d="M4059 4848 c0 -2 -2 -15 -3 -30 -1 -24 2 -28 25 -28 18 0 28 6 32 20
3 10 2 19 -2 18 -3 0 -15 1 -26 2 -17 2 -17 3 5 10 l25 8 -27 1 c-16 1 -28 0
-29 -1z m36 -38 c3 -5 -1 -10 -9 -10 -9 0 -16 5 -16 10 0 6 4 10 9 10 6 0 13
-4 16 -10z"/>
<path d="M4375 4830 c-3 -11 -3 -24 0 -30 8 -12 55 -13 55 -1 0 5 -9 7 -20 4
-16 -4 -20 0 -20 17 0 20 4 22 30 16 19 -3 29 -2 25 4 -12 19 -63 11 -70 -10z"/>
<path d="M4568 4815 c5 -38 22 -38 22 0 0 17 7 25 23 28 14 3 10 5 -13 6 -35
1 -36 0 -32 -34z"/>
<path d="M4740 4830 c0 -11 7 -23 15 -26 8 -4 15 -10 15 -15 0 -5 -7 -9 -15
-9 -8 0 -15 -4 -15 -10 0 -14 23 -13 38 2 7 7 12 24 12 39 0 15 6 30 13 32 6
3 -5 6 -25 6 -32 1 -38 -2 -38 -19z m38 -8 c2 -7 -3 -12 -12 -12 -9 0 -16 7
-16 16 0 17 22 14 28 -4z"/>
<path d="M4217 4823 c-4 -3 -7 -12 -7 -20 0 -18 56 -17 64 2 6 18 -5 20 -22 3
-6 -6 -15 -8 -19 -4 -4 4 -1 11 7 16 13 8 13 10 -1 10 -9 0 -19 -3 -22 -7z"/>
<path d="M3650 4800 c0 -5 7 -10 15 -10 8 0 15 5 15 10 0 6 -7 10 -15 10 -8 0
-15 -4 -15 -10z"/>
<path d="M3565 4790 c4 -6 11 -8 16 -5 14 9 11 15 -7 15 -8 0 -12 -5 -9 -10z"/>
<path d="M3555 4703 c-4 -16 -8 -36 -10 -45 -2 -12 3 -18 15 -18 13 0 17 5 13
20 -3 11 0 27 7 35 10 12 10 15 -1 16 -8 0 -5 4 6 9 19 8 19 9 -2 9 -17 1 -24
-6 -28 -26z"/>
<path d="M4491 4720 c-2 -8 -2 -23 -1 -33 1 -10 -4 -25 -10 -33 -10 -12 -8
-14 16 -14 17 0 24 3 17 8 -6 4 -13 25 -16 47 -2 22 -5 33 -6 25z"/>
<path d="M5061 4730 c-1 -3 -3 -24 -5 -47 -2 -37 1 -43 17 -43 14 0 17 3 9 13
-6 6 -12 28 -15 47 -2 19 -5 33 -6 30z"/>
<path d="M3297 4713 c-2 -5 0 -23 5 -40 9 -34 39 -46 54 -22 4 8 0 9 -15 4
-19 -6 -21 -2 -21 29 0 33 -12 48 -23 29z"/>
<path d="M4128 4708 c-2 -6 -2 -24 0 -40 3 -21 9 -28 26 -27 17 1 17 2 4 6
-21 5 -23 19 -5 26 10 4 10 6 0 6 -21 2 -14 21 7 21 11 0 20 5 20 10 0 14 -47
13 -52 -2z"/>
<path d="M5226 4712 c-10 -16 10 -67 27 -70 9 -2 17 1 17 7 0 6 -6 10 -12 9
-7 -2 -13 6 -13 17 0 14 6 19 20 17 l20 -4 -20 16 c-23 18 -32 19 -39 8z"/>
<path d="M5583 4704 c-8 -21 13 -64 32 -64 8 0 15 4 15 10 0 5 -7 7 -15 4 -11
-5 -15 1 -15 19 0 14 5 27 12 29 7 3 5 7 -5 11 -11 4 -20 1 -24 -9z"/>
<path d="M3384 4696 c-3 -8 -4 -23 -2 -33 4 -24 47 -24 62 0 9 15 7 21 -8 33
-25 18 -45 18 -52 0z m46 -11 c13 -16 6 -35 -15 -35 -18 0 -28 17 -21 35 7 19
20 19 36 0z"/>
<path d="M3633 4703 c-19 -7 -16 -53 3 -60 35 -13 72 39 42 58 -14 10 -26 10
-45 2z m37 -34 c0 -23 -28 -26 -37 -3 -6 16 15 37 29 28 4 -3 8 -14 8 -25z"/>
<path d="M3724 4674 c0 -19 5 -34 12 -34 7 0 9 10 6 25 -3 18 0 25 12 25 9 0
16 4 16 9 0 5 -10 9 -23 9 -19 0 -23 -6 -23 -34z"/>
<path d="M3880 4698 c0 -4 8 -8 18 -9 12 0 11 -3 -6 -10 -31 -12 -23 -34 14
-36 25 -1 29 3 29 21 -1 12 -5 27 -8 33 -8 13 -47 13 -47 1z m35 -38 c-3 -5
-10 -10 -16 -10 -5 0 -9 5 -9 10 0 6 7 10 16 10 8 0 12 -4 9 -10z"/>
<path d="M3973 4675 c1 -19 7 -35 13 -35 6 0 10 11 9 25 -2 16 2 25 11 25 8 0
14 5 14 10 0 6 -11 10 -24 10 -22 0 -24 -4 -23 -35z"/>
<path d="M4213 4704 c-7 -3 -13 -10 -13 -15 0 -6 5 -7 10 -4 6 3 10 -3 10 -14
0 -26 -18 -27 -37 -3 -13 15 -13 15 -3 -5 6 -13 20 -23 30 -23 16 0 20 7 20
31 0 27 2 30 16 18 8 -7 13 -21 11 -31 -3 -10 0 -18 8 -18 9 0 11 9 6 33 -7
32 -28 43 -58 31z"/>
<path d="M4290 4676 c0 -33 2 -35 30 -33 28 2 31 5 28 32 -2 24 -8 31 -30 33
-26 3 -28 1 -28 -32z m40 4 c0 -12 -7 -20 -17 -20 -15 0 -16 2 -3 10 10 6 11
10 3 10 -7 0 -13 5 -13 10 0 6 7 10 15 10 8 0 15 -9 15 -20z"/>
<path d="M4375 4660 c0 -33 4 -50 12 -50 7 0 10 6 7 14 -4 9 2 16 17 18 53 8
45 68 -10 68 -25 0 -26 -3 -26 -50z m52 29 c14 -14 6 -39 -13 -39 -8 0 -14 10
-14 25 0 27 9 32 27 14z"/>
<path d="M4560 4695 c-26 -32 15 -75 44 -45 8 9 6 11 -11 6 -12 -4 -24 -2 -28
4 -10 16 14 40 32 33 11 -4 14 -2 9 5 -10 16 -31 15 -46 -3z"/>
<path d="M4859 4696 c7 -9 6 -19 -5 -34 -14 -20 -14 -22 0 -22 9 0 16 5 16 12
0 9 3 9 12 0 7 -7 19 -12 28 -12 12 1 12 2 -2 11 -22 12 -23 23 -3 42 13 13
10 15 -21 15 -26 0 -32 -3 -25 -12z"/>
<path d="M4943 4658 c1 -32 6 -48 16 -48 8 0 11 6 7 15 -3 10 1 15 13 15 29 0
45 25 31 49 -8 15 -19 21 -40 19 -29 -2 -29 -4 -27 -50z m52 16 c0 -10 -8 -20
-17 -22 -18 -3 -26 27 -11 42 12 11 28 0 28 -20z"/>
<path d="M5131 4688 c-5 -14 -5 -28 1 -35 12 -15 44 -17 52 -4 4 5 -2 7 -13 4
-10 -3 -21 0 -25 5 -3 5 8 12 25 16 27 5 30 8 19 21 -18 22 -49 18 -59 -7z"/>
<path d="M5310 4676 c0 -31 3 -36 23 -36 20 1 20 2 4 11 -21 12 -13 29 14 29
30 0 17 24 -14 28 -25 3 -27 0 -27 -32z"/>
<path d="M5391 4692 c-13 -25 5 -52 34 -52 13 0 27 5 31 11 4 7 0 9 -12 5 -11
-3 -25 -2 -32 3 -10 6 -4 10 18 15 28 5 31 8 20 21 -17 20 -47 19 -59 -3z"/>
<path d="M5485 4675 c0 -41 12 -47 17 -8 4 39 28 42 28 4 0 -17 5 -31 11 -31
6 0 9 14 7 33 -3 27 -7 32 -33 35 -28 3 -30 1 -30 -33z"/>
<path d="M5669 4694 c-9 -11 -10 -20 -2 -32 15 -24 44 -27 59 -7 28 38 -27 75
-57 39z m46 -20 c0 -10 -8 -20 -17 -22 -18 -3 -26 27 -11 42 12 11 28 0 28
-20z"/>
<path d="M5768 4675 c5 -45 17 -45 18 0 0 20 -4 35 -11 35 -7 0 -9 -13 -7 -35z"/>
<path d="M5808 4695 c5 -10 7 -26 5 -36 -3 -11 0 -19 6 -19 17 0 10 62 -8 68
-10 3 -11 0 -3 -13z"/>
<path d="M5868 4703 c-9 -17 -7 -63 2 -63 6 0 10 10 10 21 0 17 5 20 21 16 15
-4 19 -1 17 11 -3 18 -43 29 -50 15z"/>
<path d="M4754 4685 c-12 -30 44 -63 60 -36 3 4 -6 6 -20 3 -21 -4 -25 -1 -22
14 3 13 11 18 26 17 14 -2 21 1 17 7 -10 16 -55 12 -61 -5z"/>
<path d="M5967 4650 c-3 -11 -1 -20 4 -20 5 0 9 9 9 20 0 11 -2 20 -4 20 -2 0
-6 -9 -9 -20z"/>
<path d="M5895 4650 c-3 -5 1 -10 9 -10 9 0 16 5 16 10 0 6 -4 10 -9 10 -6 0
-13 -4 -16 -10z"/>
<path d="M5056 4329 c-30 -35 -32 -58 -11 -98 16 -33 33 -41 81 -41 48 0 84
37 84 85 0 82 -101 117 -154 54z m114 -9 c26 -26 25 -51 -1 -84 -38 -48 -109
-24 -109 37 0 61 67 90 110 47z"/>
<path d="M8195 6399 c-111 -43 -108 -35 -30 -85 37 -24 72 -44 75 -44 4 0 10
10 14 23 8 32 7 127 -1 126 -5 0 -30 -9 -58 -20z m45 -59 c0 -27 -3 -50 -6
-50 -9 0 -104 63 -101 67 6 5 82 32 95 32 8 1 12 -15 12 -49z"/>
<path d="M1898 5155 c-3 -4 -47 -21 -98 -39 l-93 -33 88 -69 c48 -38 90 -69
94 -69 5 0 38 165 40 203 1 12 -21 17 -31 7z m8 -37 c-3 -13 -9 -51 -13 -85
-3 -35 -8 -63 -10 -63 -9 0 -133 100 -132 107 1 7 128 58 153 62 4 0 5 -9 2
-21z"/>
</g>
</svg>
